<svg width="202" height="51" fill="none" xmlns="http://www.w3.org/2000/svg"><g clip-path="url(#clip0)"><path d="M40.212 24.24c0 11.014-8.709 19.942-19.451 19.942-10.743 0-19.451-8.928-19.451-19.941 0-11.014 8.708-19.942 19.45-19.942 10.743 0 19.452 8.928 19.452 19.942z" fill="#0029FA"/><path fill-rule="evenodd" clip-rule="evenodd" d="M40.179 25.5a20 20 0 00.523-4.558C40.702 9.928 31.774 1 20.76 1 9.747 1 .82 9.928.82 20.942a20 20 0 00.523 4.558c2.062-8.817 9.973-15.384 19.418-15.384 9.446 0 17.357 6.567 19.419 15.384z" fill="#13B5FF"/><path fill-rule="evenodd" clip-rule="evenodd" d="M40.179 25.5a20 20 0 01.523 4.558C40.702 41.072 31.774 50 20.76 50 9.747 50 .82 41.072.82 30.058a20 20 0 01.523-4.558c2.062 8.817 9.973 15.384 19.418 15.384 9.446 0 17.357-6.567 19.419-15.384z" fill="#C2C7D6"/><path d="M55.12 15.61c0-2.427.502-4.585 1.505-6.475 1.027-1.913 2.473-3.395 4.34-4.445 1.867-1.073 4.013-1.61 6.44-1.61 3.08 0 5.67.828 7.77 2.485 2.1 1.633 3.453 3.862 4.06 6.685H71.85c-.443-.933-1.062-1.645-1.855-2.135-.77-.49-1.668-.735-2.695-.735-1.587 0-2.858.572-3.815 1.715-.933 1.12-1.4 2.625-1.4 4.515 0 1.913.467 3.442 1.4 4.585.957 1.12 2.228 1.68 3.815 1.68 1.027 0 1.925-.245 2.695-.735.793-.49 1.412-1.202 1.855-2.135h7.385c-.607 2.823-1.96 5.063-4.06 6.72-2.1 1.633-4.69 2.45-7.77 2.45-2.427 0-4.573-.525-6.44-1.575a11.2 11.2 0 01-4.34-4.445c-1.003-1.913-1.505-4.095-1.505-6.545zm42.973 8.365h-8.75L88.013 28h-7.21l8.995-24.675h7.91L106.668 28h-7.245l-1.33-4.025zm-1.715-5.25l-2.66-7.98-2.625 7.98h5.285zm11.686-3.115c0-2.427.502-4.585 1.505-6.475 1.027-1.913 2.474-3.395 4.34-4.445 1.867-1.073 4.014-1.61 6.44-1.61 3.08 0 5.67.828 7.77 2.485 2.1 1.633 3.454 3.862 4.06 6.685h-7.385c-.443-.933-1.061-1.645-1.855-2.135-.77-.49-1.668-.735-2.695-.735-1.586 0-2.858.572-3.815 1.715-.933 1.12-1.4 2.625-1.4 4.515 0 1.913.467 3.442 1.4 4.585.957 1.12 2.229 1.68 3.815 1.68 1.027 0 1.925-.245 2.695-.735.794-.49 1.412-1.202 1.855-2.135h7.385c-.606 2.823-1.96 5.063-4.06 6.72-2.1 1.633-4.69 2.45-7.77 2.45-2.426 0-4.573-.525-6.44-1.575a11.207 11.207 0 01-4.34-4.445c-1.003-1.913-1.505-4.095-1.505-6.545z" fill="#3D3D4F"/><path d="M56.592 41.416c0-1.088.25-2.064.752-2.928a5.427 5.427 0 012.064-2.016 5.755 5.755 0 012.864-.736c1.184 0 2.235.293 3.152.88.928.576 1.6 1.397 2.016 2.464h-2.192c-.288-.587-.688-1.024-1.2-1.312-.512-.288-1.104-.432-1.776-.432-.736 0-1.392.165-1.968.496-.576.33-1.03.805-1.36 1.424-.32.619-.48 1.339-.48 2.16 0 .821.16 1.541.48 2.16.33.619.784 1.099 1.36 1.44.576.33 1.232.496 1.968.496.672 0 1.264-.144 1.776-.432.512-.288.912-.725 1.2-1.312h2.192c-.416 1.067-1.088 1.888-2.016 2.464-.917.576-1.968.864-3.152.864-1.045 0-2-.24-2.864-.72a5.548 5.548 0 01-2.064-2.032c-.501-.864-.752-1.84-.752-2.928zm14.807-1.952a2.822 2.822 0 011.056-1.04c.448-.256.976-.384 1.584-.384v1.888h-.464c-.715 0-1.259.181-1.632.544-.363.363-.544.992-.544 1.888V47h-1.824v-8.816h1.824v1.28zm12.397 2.912c0 .33-.022.63-.064.896h-6.736c.053.704.314 1.27.784 1.696.469.427 1.045.64 1.728.64.981 0 1.674-.41 2.08-1.232h1.968a3.997 3.997 0 01-1.456 2c-.694.512-1.558.768-2.592.768-.843 0-1.6-.187-2.272-.56a4.185 4.185 0 01-1.568-1.6c-.374-.693-.56-1.493-.56-2.4 0-.907.181-1.701.544-2.384a3.937 3.937 0 011.552-1.6c.672-.373 1.44-.56 2.304-.56.832 0 1.573.181 2.224.544a3.83 3.83 0 011.52 1.536c.362.65.544 1.403.544 2.256zm-1.904-.576c-.011-.672-.251-1.21-.72-1.616-.47-.405-1.051-.608-1.744-.608-.63 0-1.168.203-1.616.608-.448.395-.715.933-.8 1.616h4.88zm3.09.752c0-.885.182-1.67.545-2.352a4.063 4.063 0 013.632-2.16 4.01 4.01 0 011.696.384c.565.245 1.013.576 1.344.992V35.16h1.84V47h-1.84v-1.328c-.299.427-.715.779-1.248 1.056-.523.277-1.126.416-1.808.416a4.028 4.028 0 01-2.112-.576 4.276 4.276 0 01-1.504-1.632c-.363-.704-.544-1.499-.544-2.384zm7.217.032c0-.608-.128-1.136-.384-1.584a2.584 2.584 0 00-.976-1.024 2.574 2.574 0 00-1.312-.352c-.47 0-.907.117-1.312.352-.406.224-.736.56-.992 1.008-.246.437-.368.96-.368 1.568 0 .608.122 1.141.368 1.6.256.459.586.81.992 1.056a2.627 2.627 0 002.624 0c.405-.235.73-.576.976-1.024.256-.459.384-.992.384-1.6zm5.163-5.568a1.13 1.13 0 01-.832-.336 1.13 1.13 0 01-.336-.832c0-.33.112-.608.336-.832a1.13 1.13 0 01.832-.336c.32 0 .592.112.816.336.224.224.336.501.336.832 0 .33-.112.608-.336.832a1.11 1.11 0 01-.816.336zm.896 1.168V47h-1.824v-8.816h1.824zm4.523 1.488v4.88c0 .33.075.57.224.72.16.139.427.208.8.208h1.12V47h-1.44c-.821 0-1.451-.192-1.888-.576-.437-.384-.656-1.008-.656-1.872v-4.88h-1.04v-1.488h1.04v-2.192h1.84v2.192h2.144v1.488h-2.144zm14.686 5.056h-4.656l-.8 2.272h-1.904l3.984-11.136h2.112L120.187 47h-1.92l-.8-2.272zm-.512-1.488l-1.808-5.168-1.824 5.168h3.632zm6.788-3.76c.309-.405.73-.747 1.264-1.024.533-.277 1.136-.416 1.808-.416.768 0 1.466.192 2.096.576a3.92 3.92 0 011.504 1.584c.362.683.544 1.467.544 2.352 0 .885-.182 1.68-.544 2.384a4.12 4.12 0 01-1.504 1.632 3.947 3.947 0 01-2.096.576c-.672 0-1.27-.133-1.792-.4a4.099 4.099 0 01-1.28-1.024v5.472h-1.824V38.184h1.824v1.296zm5.36 3.072c0-.608-.128-1.13-.384-1.568a2.447 2.447 0 00-.992-1.008 2.577 2.577 0 00-1.312-.352 2.63 2.63 0 00-1.312.352 2.691 2.691 0 00-.992 1.024c-.246.448-.368.976-.368 1.584 0 .608.122 1.141.368 1.6.256.448.586.79.992 1.024a2.63 2.63 0 001.312.352c.469 0 .906-.117 1.312-.352.416-.245.746-.597.992-1.056.256-.459.384-.992.384-1.6zm5.484-3.072c.309-.405.73-.747 1.264-1.024.533-.277 1.136-.416 1.808-.416.768 0 1.466.192 2.096.576a3.92 3.92 0 011.504 1.584c.362.683.544 1.467.544 2.352 0 .885-.182 1.68-.544 2.384a4.12 4.12 0 01-1.504 1.632 3.947 3.947 0 01-2.096.576c-.672 0-1.27-.133-1.792-.4a4.099 4.099 0 01-1.28-1.024v5.472h-1.824V38.184h1.824v1.296zm5.36 3.072c0-.608-.128-1.13-.385-1.568a2.439 2.439 0 00-.991-1.008 2.577 2.577 0 00-1.312-.352 2.63 2.63 0 00-1.312.352 2.691 2.691 0 00-.992 1.024c-.246.448-.368.976-.368 1.584 0 .608.122 1.141.368 1.6.256.448.586.79.992 1.024a2.63 2.63 0 001.312.352c.469 0 .906-.117 1.312-.352.416-.245.746-.597.991-1.056.257-.459.385-.992.385-1.6zm7.208-1.136c0-1.088.25-2.064.752-2.928a5.427 5.427 0 012.064-2.016 5.752 5.752 0 012.864-.736c1.184 0 2.234.293 3.152.88.928.576 1.6 1.397 2.016 2.464h-2.192c-.288-.587-.688-1.024-1.2-1.312-.512-.288-1.104-.432-1.776-.432-.736 0-1.392.165-1.968.496a3.5 3.5 0 00-1.36 1.424c-.32.619-.48 1.339-.48 2.16 0 .821.16 1.541.48 2.16a3.61 3.61 0 001.36 1.44c.576.33 1.232.496 1.968.496.672 0 1.264-.144 1.776-.432.512-.288.912-.725 1.2-1.312h2.192c-.416 1.067-1.088 1.888-2.016 2.464-.918.576-1.968.864-3.152.864-1.046 0-2-.24-2.864-.72a5.548 5.548 0 01-2.064-2.032c-.502-.864-.752-1.84-.752-2.928zm21.063.96c0 .33-.022.63-.064.896h-6.736c.053.704.314 1.27.784 1.696.469.427 1.045.64 1.728.64.981 0 1.674-.41 2.08-1.232h1.967a3.992 3.992 0 01-1.455 2c-.694.512-1.558.768-2.592.768-.843 0-1.6-.187-2.272-.56a4.18 4.18 0 01-1.568-1.6c-.374-.693-.56-1.493-.56-2.4 0-.907.181-1.701.544-2.384a3.93 3.93 0 011.552-1.6c.672-.373 1.44-.56 2.304-.56.832 0 1.573.181 2.224.544a3.84 3.84 0 011.52 1.536c.362.65.544 1.403.544 2.256zm-1.904-.576c-.011-.672-.251-1.21-.72-1.616-.47-.405-1.051-.608-1.744-.608-.63 0-1.168.203-1.616.608-.448.395-.715.933-.8 1.616h4.88zm8.147-3.76c.693 0 1.312.144 1.856.432a3.07 3.07 0 011.296 1.28c.309.565.464 1.248.464 2.048V47h-1.808v-4.928c0-.79-.198-1.392-.592-1.808-.395-.427-.934-.64-1.616-.64-.683 0-1.227.213-1.632.64-.395.416-.592 1.019-.592 1.808V47h-1.824v-8.816h1.824v1.008a3.025 3.025 0 011.136-.848 3.71 3.71 0 011.488-.304zm8.07 1.632v4.88c0 .33.075.57.224.72.16.139.427.208.8.208h1.12V47h-1.44c-.821 0-1.451-.192-1.888-.576-.437-.384-.656-1.008-.656-1.872v-4.88h-1.04v-1.488h1.04v-2.192h1.84v2.192h2.144v1.488h-2.144zm11.905 2.704c0 .33-.021.63-.064.896h-6.736c.054.704.315 1.27.784 1.696.47.427 1.046.64 1.728.64.982 0 1.675-.41 2.08-1.232h1.968a3.994 3.994 0 01-1.456 2c-.693.512-1.557.768-2.592.768-.842 0-1.6-.187-2.272-.56a4.187 4.187 0 01-1.568-1.6c-.373-.693-.56-1.493-.56-2.4 0-.907.182-1.701.544-2.384a3.942 3.942 0 011.552-1.6c.672-.373 1.44-.56 2.304-.56.832 0 1.574.181 2.224.544a3.825 3.825 0 011.52 1.536c.363.65.544 1.403.544 2.256zm-1.904-.576c-.01-.672-.25-1.21-.72-1.616-.469-.405-1.05-.608-1.744-.608-.629 0-1.168.203-1.616.608-.448.395-.714.933-.8 1.616h4.88zm5.523-2.336a2.826 2.826 0 011.056-1.04c.448-.256.976-.384 1.584-.384v1.888h-.464c-.714 0-1.258.181-1.632.544-.362.363-.544.992-.544 1.888V47h-1.824v-8.816h1.824v1.28z" fill="#5E6985"/></g><defs><clipPath id="clip0"><path fill="#fff" d="M0 0h202v51H0z"/></clipPath></defs></svg>