<svg width="41" height="41" fill="none" xmlns="http://www.w3.org/2000/svg" version="1.0"><rect x=".071" y=".918" width="40" height="40" rx="4" fill="#D9F7E8"/><g clip-path="url(#clip0_1_905)" fill="#179D5A"><path d="M20.07 12.861c-4.441 0-8.054 3.614-8.054 8.055 0 4.442 3.613 8.055 8.054 8.055 4.442 0 8.055-3.613 8.055-8.055 0-4.441-3.613-8.055-8.055-8.055zm0 14.645a6.598 6.598 0 01-6.59-6.59 6.598 6.598 0 016.59-6.59 6.598 6.598 0 016.59 6.59 6.598 6.598 0 01-6.59 6.59z"/><path d="M23.214 18.203l-3.876 3.876-2.411-2.412a.732.732 0 10-1.036 1.036l2.93 2.929a.73.73 0 001.035 0l4.393-4.394a.732.732 0 10-1.035-1.035z"/><path d="M31.523 15.784l-2.558-1.531-.573-2.375a2.187 2.187 0 00-2.305-1.675l-2.912.225-1.68-1.483a2.188 2.188 0 00-2.85 0l-1.68 1.483-2.911-.225a2.187 2.187 0 00-2.299 1.648l-.798 2.544-2.337 1.389a2.188 2.188 0 00-.88 2.71l.996 2.414-.997 2.414a2.188 2.188 0 00.88 2.71c.004.001 2.554 1.52 2.554 1.52l.576 2.386a2.186 2.186 0 002.13 1.681c.155 0-.018.006 3.056-.23l1.71 1.502a2.192 2.192 0 002.85 0l1.71-1.502 2.882.223c1.08.084 2.05-.62 2.305-1.674l.573-2.376 2.558-1.53a2.188 2.188 0 00.88-2.71l-.996-2.414.996-2.415a2.188 2.188 0 00-.88-2.71zm-1.585 5.403l1.111 2.694a.73.73 0 01-.29.901l-2.81 1.682a.732.732 0 00-.335.456l-.646 2.674a.729.729 0 01-.768.558l-3.19-.247a.732.732 0 00-.539.18l-1.93 1.694a.729.729 0 01-.942 0l-1.93-1.694a.732.732 0 00-.54-.18l-3.188.247a.73.73 0 01-.769-.558l-.648-2.684a.733.733 0 00-.337-.458l-2.804-1.67a.73.73 0 01-.29-.901l1.112-2.694a.732.732 0 000-.559l-1.112-2.693a.73.73 0 01.29-.9l2.563-1.524a.732.732 0 00.324-.41c.945-3.011.891-2.834.902-2.88a.728.728 0 01.769-.558l3.22.25a.733.733 0 00.541-.182l1.897-1.674a.73.73 0 01.942 0l1.897 1.674a.733.733 0 00.541.181l3.22-.249a.73.73 0 01.77.558l.645 2.674a.732.732 0 00.335.457l2.81 1.681a.73.73 0 01.29.902l-1.111 2.693a.732.732 0 000 .559z"/></g><defs><clipPath id="clip0_1_905"><path fill="#fff" transform="translate(7.571 8.418)" d="M0 0h25v25H0z"/></clipPath></defs></svg>