<svg width="41" height="41" fill="none" xmlns="http://www.w3.org/2000/svg"><rect x=".369" y=".971" width="40" height="40" rx="4" fill="#DDDDFB"/><g clip-path="url(#clip0_1_1427)" fill="#3D42DF"><path d="M32.317 17.196a7.103 7.103 0 00-5.227-6.422 7.06 7.06 0 00-5.395.688 7.06 7.06 0 00-3.328 4.301 7.123 7.123 0 00.271 4.538l-1.086 2.23a.489.489 0 00.44.703h2.86a7.113 7.113 0 004.377 1.504 7.1 7.1 0 005.897-3.149.488.488 0 10-.812-.544 6.124 6.124 0 01-6.701 2.499 6.208 6.208 0 01-2.282-1.177.489.489 0 00-.309-.11h-2.25l.842-1.728a.488.488 0 00.007-.412 6.14 6.14 0 01-.312-4.097 6.136 6.136 0 017.524-4.303 6.126 6.126 0 014.509 5.539.488.488 0 10.975-.06zm-21.129 6.098h3.375c.27 0 .488-.219.488-.489V17.14h1.575a.488.488 0 00.371-.807l-3.75-4.378a.488.488 0 00-.742 0l-3.75 4.378a.489.489 0 00.37.807H10.7v5.666c0 .27.219.489.489.489zm-1.001-7.132l2.689-3.14 2.688 3.14h-1.001a.488.488 0 00-.489.488v5.667h-2.397V16.65a.489.489 0 00-.489-.488h-1.001z"/><path d="M22.362 21.13a.493.493 0 00.688-.06l5.162-6.136a.489.489 0 00-.748-.63l-5.162 6.138a.488.488 0 00.06.688zm2.668-5.425c0-.962-.788-1.744-1.757-1.744-.968 0-1.755.782-1.755 1.744s.787 1.745 1.755 1.745c.969 0 1.756-.783 1.756-1.745zm-2.535 0c0-.423.349-.767.778-.767.43 0 .78.344.78.767 0 .423-.35.768-.78.768a.774.774 0 01-.778-.768zm4.653 5.729c.968 0 1.755-.783 1.755-1.744 0-.962-.787-1.745-1.755-1.745-.969 0-1.756.783-1.756 1.745 0 .961.787 1.744 1.756 1.744zm0-2.512c.429 0 .778.345.778.768a.773.773 0 01-.778.767.774.774 0 01-.78-.767c0-.423.35-.768.78-.768zM8.541 32.53h4.793c.275 0 .53-.092.734-.246.205.154.46.246.735.246h4.76c.276 0 .53-.092.735-.246.205.154.46.246.735.246h4.76c.675 0 1.224-.549 1.224-1.223v-.821c0-.674-.549-1.223-1.223-1.223h-4.761c-.096 0-.19.011-.279.032.021-.09.033-.182.033-.278v-.82c0-.276-.092-.53-.246-.735.154-.205.246-.46.246-.735v-.82c0-.675-.549-1.223-1.223-1.223h-4.761c-.675 0-1.223.548-1.223 1.223v.82c0 .096.011.19.032.279a1.222 1.222 0 00-.278-.033H8.54c-.674 0-1.223.549-1.223 1.223v.82c0 .276.092.53.246.736a1.216 1.216 0 00-.246.734v.82c0 .675.549 1.224 1.223 1.224zm4.793-.977H8.54a.246.246 0 01-.246-.246v-.821c0-.136.11-.246.246-.246h4.793c.135 0 .246.11.246.246v.82c0 .136-.11.247-.246.247zm6.476-3.357v.82c0 .137-.11.247-.246.247h-4.761a.246.246 0 01-.246-.246v-.82c0-.136.11-.247.246-.247h4.76c.136 0 .247.11.247.246zm-.246 3.357h-4.761a.246.246 0 01-.246-.246v-.821c0-.136.11-.246.246-.246h4.76c.136 0 .247.11.247.246v.82c0 .136-.11.247-.246.247zm1.469-1.313h4.76c.136 0 .247.11.247.246v.82c0 .136-.11.247-.246.247h-4.761a.246.246 0 01-.246-.246v-.821c0-.136.11-.246.246-.246zm-6.476-4.333c0-.136.11-.246.246-.246h4.76c.136 0 .247.11.247.246v.82c0 .136-.11.246-.246.246h-4.761a.246.246 0 01-.246-.246v-.82zm-6.262 2.29c0-.136.11-.247.246-.247h4.793c.135 0 .246.11.246.246v.82c0 .137-.11.247-.246.247H8.54a.246.246 0 01-.246-.246v-.82zm23.719-9.098a.492.492 0 00-.677-.136.493.493 0 00-.135.678.494.494 0 00.677.135.493.493 0 00.135-.677z"/></g><defs><clipPath id="clip0_1_1427"><path fill="#fff" transform="translate(7.318 9.025)" d="M0 0h25v25H0z"/></clipPath></defs></svg>