<svg width="41" height="41" fill="none" xmlns="http://www.w3.org/2000/svg"><rect x=".361" y=".971" width="40" height="40" rx="4" fill="#D9F6FF"/><path d="M29.232 13.586h-.78v-.781a.781.781 0 00-1.563 0v.78h-5.47v-.78a.781.781 0 10-1.562 0v.78H14.39v-.78a.781.781 0 00-1.563 0v.78h-.781A2.346 2.346 0 009.7 15.93v12.5a2.346 2.346 0 002.344 2.343h17.187a2.346 2.346 0 002.344-2.343v-12.5a2.346 2.346 0 00-2.344-2.344zm-17.187 1.562h.781v.782a.781.781 0 001.563 0v-.782h5.468v.782a.781.781 0 001.563 0v-.782h5.469v.782a.781.781 0 001.562 0v-.782h.781c.431 0 .782.351.782.782v2.343h-18.75V15.93c0-.431.35-.782.78-.782zM30.014 28.43c0 .43-.35.78-.782.78H12.045a.782.782 0 01-.781-.78v-8.594h18.75v8.594zm-9.375-2.344c0-.431.35-.781.78-.781h1.563a.781.781 0 110 1.562H21.42a.781.781 0 01-.781-.781zm-3.907 0c0-.431.35-.781.782-.781h1.562a.781.781 0 010 1.562h-1.562a.781.781 0 01-.782-.781zm-3.906-3.125c0-.431.35-.781.781-.781h1.563a.781.781 0 110 1.562h-1.563a.781.781 0 01-.78-.781zm0 3.125c0-.431.35-.781.781-.781h1.563a.781.781 0 110 1.562h-1.563a.781.781 0 01-.78-.781z" fill="#3D67FE"/></svg>