<svg width="17" height="15" fill="none" xmlns="http://www.w3.org/2000/svg"><path d="M6.012 11.5l.707.707m-2.062-.079l.608-.608m-2.004-.02l.644.644m2.257 2.582H1.65a.51.51 0 01-.51-.51V1.62a.51.51 0 01.51-.51h5.97m1.094 0h7.448a.51.51 0 01.51.51v12.598a.51.51 0 01-.51.51H7.255m9.333-11.63H1.226" stroke="#0A13B8" stroke-width=".5" stroke-miterlimit="10" stroke-linecap="round" stroke-linejoin="round"/><circle cx="4.354" cy="2.104" r=".234" fill="#0A13B8"/><circle cx="3.288" cy="2.104" r=".234" fill="#0A13B8"/><circle cx="2.222" cy="2.104" r=".234" fill="#0A13B8"/><path d="M8.907 3.188V14.66m7.603-5.736H3.434m-1.094 0H1.304m3.71-.922a1.99 1.99 0 100-3.982 1.99 1.99 0 000 3.982z" stroke="#0A13B8" stroke-width=".5" stroke-miterlimit="10" stroke-linecap="round" stroke-linejoin="round"/><path d="M5.014 6.83a.819.819 0 100-1.636.819.819 0 000 1.637zm0-2.75v1.014M3.342 6.976l.878-.507m2.465.507l-.877-.507m7.046 1.532h-1.191V5.78h1.114m-1.114 2.223H10.47V6.635h1.135m2.441 1.367h-1.191V4.901h1.13m1.253.563V4.02h-1.192v3.982h1.192V6.557m-12.34 5.06a.481.481 0 100-.963.481.481 0 000 .963zm1.375 1.375a.481.481 0 100-.963.481.481 0 000 .963zm1.375-1.375a.481.481 0 100-.963.481.481 0 000 .963zm1.502 1.375a.481.481 0 100-.963.481.481 0 000 .963zm7.55-1.645h-3.82a.499.499 0 010-.997h3.82a.499.499 0 110 .997zm0 2.018h-3.82a.499.499 0 010-.998h3.82a.499.499 0 110 .998zm-3.02-2.885v.657m2.25 1.4v.657" stroke="#0A13B8" stroke-width=".5" stroke-miterlimit="10" stroke-linecap="round" stroke-linejoin="round"/></svg>