<svg width="41" height="41" fill="none" xmlns="http://www.w3.org/2000/svg"><rect x=".418" y=".674" width="40" height="40" rx="4" fill="#EDD9F7"/><g clip-path="url(#clip0_1_1373)" fill="#A065BD"><path d="M32.071 23.86h-3.533a11.72 11.72 0 00-4.352-6.602 1.243 1.243 0 00-.347-2.033l1.084-3.825a1.664 1.664 0 00-1.598-2.124h-.754a2.5 2.5 0 00-4.333 0h-.754a1.664 1.664 0 00-1.597 2.122l1.084 3.827a1.243 1.243 0 00-.347 2.034 11.813 11.813 0 00-4.353 6.6H9.155a1.244 1.244 0 00-.925 2.084 1.23 1.23 0 000 1.667 1.237 1.237 0 00.258 1.887 1.209 1.209 0 000 1.226 1.247 1.247 0 00.667 2.303h6.666a1.247 1.247 0 001.11-.685 9.183 9.183 0 003.474.685H32.07a.833.833 0 00.834-.833v-7.5a.833.833 0 00-.834-.833zm0 2.024a1.662 1.662 0 01-1.19-1.191h1.19v1.19zm-14.583-9.108a.417.417 0 110-.833h5.833a.417.417 0 110 .833h-5.833zm-.664-6.336a.82.82 0 01.66-.33h.458a2.518 2.518 0 00-.037.416v1.667a.417.417 0 10.833 0v-1.667a1.667 1.667 0 113.333 0v1.667a.417.417 0 10.834 0v-1.667a2.514 2.514 0 00-.038-.416h.459a.832.832 0 01.794 1.061l-1.114 3.939h-5.203l-1.115-3.94a.823.823 0 01.136-.73zm-7.67 14.253h6.667a.417.417 0 110 .833H9.155a.417.417 0 010-.833zm0 5.417a.417.417 0 01.417-.417h6.667a.417.417 0 010 .833H9.571a.417.417 0 01-.416-.416zm0-1.25a.416.416 0 110-.834h6.667a.416.416 0 110 .834H9.155zm-.416-2.084a.417.417 0 01.417-.416h6.666a.417.417 0 110 .833H9.155a.416.416 0 01-.417-.417zm7.083 5.417H9.155a.416.416 0 110-.833h6.666a.417.417 0 110 .833zm1.209-.718a1.25 1.25 0 00-.125-.312 1.242 1.242 0 000-2.107 1.222 1.222 0 00-.159-1.446 1.231 1.231 0 000-1.667 1.245 1.245 0 00-.925-2.083h-2.697c.616-2.454 2.467-5.053 4.483-6.25h5.595c2.558 1.515 4.703 5.112 4.703 7.916 0 3.676-3.365 6.667-7.5 6.667a8.329 8.329 0 01-3.375-.718zm11.708-5.949a7.038 7.038 0 00-.057-.833h1.345a2.503 2.503 0 002.045 2.046v3.408a2.502 2.502 0 00-2.045 2.046h-5.82c2.687-1.246 4.532-3.764 4.532-6.667zm2.143 6.667a1.662 1.662 0 011.19-1.19v1.19h-1.19z"/><path d="M30.404 29.693a1.25 1.25 0 100-2.501 1.25 1.25 0 000 2.501zm0-1.666a.417.417 0 110 .833.417.417 0 010-.833zm-8.749-5.002a.417.417 0 10.833 0 2.087 2.087 0 00-1.667-2.041v-.042a.417.417 0 00-.833 0v.042a2.084 2.084 0 000 4.083v2.465a1.25 1.25 0 01-.833-1.173.416.416 0 10-.834 0 2.087 2.087 0 001.667 2.041v.042a.417.417 0 00.833 0V28.4a2.083 2.083 0 000-4.083v-2.465a1.25 1.25 0 01.834 1.173zm-2.5 0a1.25 1.25 0 01.833-1.173V24.2a1.25 1.25 0 01-.833-1.174zm2.5 3.334a1.25 1.25 0 01-.834 1.173v-2.347a1.25 1.25 0 01.834 1.174z"/></g><defs><clipPath id="clip0_1_1373"><path fill="#fff" transform="translate(7.904 8.025)" d="M0 0h25v25H0z"/></clipPath></defs></svg>