<svg width="41" height="41" fill="none" xmlns="http://www.w3.org/2000/svg"><rect x=".594" y=".674" width="40" height="40" rx="4" fill="#F7E9D9"/><g clip-path="url(#clip0_1_1387)" fill="#C89C67"><path d="M12.782 20.578v.838h.781v-.838a1.113 1.113 0 00.165-2.055l-.761-.38a.334.334 0 01.15-.632h.113a.331.331 0 01.333.332v.057h.782v-.057c0-.497-.33-.915-.782-1.058v-.838h-.78v.838a1.113 1.113 0 00-.166 2.056l.762.38a.334.334 0 01-.15.632h-.113a.334.334 0 01-.334-.333v-.448h-.781v.448c0 .498.33.915.781 1.058z"/><path d="M13.173 22.979a4.302 4.302 0 004.297-4.297c0-.107-.008-.212-.016-.318l1.325-.221c.244.546.79.93 1.425.93.862 0 1.563-.701 1.563-1.563a1.55 1.55 0 00-.061-.408l2.85-1.629c.283.292.679.474 1.117.474.862 0 1.562-.7 1.562-1.562 0-.29-.084-.556-.221-.789l4.128-4.128v2.182h.78V8.135h-3.515v.781h2.182l-4.127 4.128a1.54 1.54 0 00-.79-.222c-.86 0-1.562.701-1.562 1.563 0 .142.026.277.061.408l-2.85 1.629a1.555 1.555 0 00-1.117-.475 1.56 1.56 0 00-1.548 1.425l-1.331.222a4.3 4.3 0 00-4.152-3.21 4.302 4.302 0 00-4.297 4.298 4.302 4.302 0 004.297 4.297zm12.5-9.375a.782.782 0 11-.002 1.564.782.782 0 01.002-1.564zm-5.469 3.125a.782.782 0 11-.001 1.564.782.782 0 01.001-1.564zm-7.031-1.563a3.52 3.52 0 013.516 3.516 3.52 3.52 0 01-3.516 3.515 3.52 3.52 0 01-3.516-3.515 3.52 3.52 0 013.516-3.516zM9.657 32.353h3.906V23.76H9.657v8.593zm.781-7.812h2.344v7.031h-2.344v-7.031zm3.907 7.812h3.906v-7.812h-3.906v7.812zm.781-7.03h2.344v6.25h-2.344v-6.25z"/><path d="M19.032 32.353h3.907v-12.5h-3.907v12.5zm.782-11.718h2.343v10.937h-2.343V20.635zm9.766 5.525v-.838h-.782v.838a1.113 1.113 0 00-.165 2.056l.762.38a.334.334 0 01-.15.632h-.114a.334.334 0 01-.333-.333v-.448h-.781v.448c0 .498.33.916.78 1.058v.838h.782v-.838a1.11 1.11 0 00.165-2.055l-.762-.381a.334.334 0 01.15-.632h.114c.184 0 .333.15.333.333v.057h.781v-.057c0-.497-.33-.915-.78-1.058z"/><path d="M32.501 26.213l-1.327-2.122.695-2.43a1.42 1.42 0 00-1.364-1.808h-1.07c-.552 0-1.025.32-1.26.782h-.549v-3.907H23.72v15.625h5.469a3.91 3.91 0 003.906-3.906v-.163c0-.734-.206-1.45-.594-2.07zm-3.703-4.94c0-.352.286-.638.637-.638h1.07a.638.638 0 01.612.812l-.66 2.313h-2.67l-1.124-1.125a.715.715 0 01.506-1.22h.848v.782h.78v-.925zm-4.297 10.3V17.51h2.344v3.162a1.496 1.496 0 00-1.172 1.458c0 .4.155.775.438 1.058l1.02 1.019-1.255 2.006a3.9 3.9 0 00-.594 2.07v.164c0 1.279.62 2.412 1.573 3.125H24.5zm7.812-3.126a3.129 3.129 0 01-3.125 3.125 3.129 3.129 0 01-3.124-3.125v-.163c0-.587.163-1.16.474-1.656l1.304-2.087h2.693l1.303 2.087c.311.497.475 1.07.475 1.656v.163z"/></g><defs><clipPath id="clip0_1_1387"><path fill="#fff" transform="translate(8.485 7.744)" d="M0 0h25v25H0z"/></clipPath></defs></svg>