<svg width="17" height="17" fill="none" xmlns="http://www.w3.org/2000/svg"><g clip-path="url(#clip0_1_656)" fill="#046F08"><path d="M8.38 5.823a2.863 2.863 0 01-.023.34c.01-.078.001-.01 0 .005a3.62 3.62 0 01-.223.808l-.024.059c.026-.065-.001.002-.006.013a4.109 4.109 0 01-.324.595c-.046.07-.095.138-.145.205.041-.055-.001.001-.009.01a3.333 3.333 0 01-.303.328 2.685 2.685 0 01-.09.08l-.045.037a2.59 2.59 0 01-.021.017 2.06 2.06 0 01-.407.24c.07-.032.012-.006-.003 0a1.687 1.687 0 01-.315.086c-.05.009.062-.006-.018.002a1.446 1.446 0 01-.328-.004 1.505 1.505 0 01-.28-.078l-.051-.02c.071.029.011.004-.002-.002a1.895 1.895 0 01-.31-.179c-.017-.01-.114-.084-.054-.037a2.992 2.992 0 01-.494-.502 3.61 3.61 0 01-.23-.344c-.09-.152-.17-.31-.24-.473.028.064 0-.002-.004-.013l-.023-.059a4.047 4.047 0 01-.18-.613 3.34 3.34 0 01-.022-.117l-.009-.059a1.443 1.443 0 00-.002-.023 2.589 2.589 0 01-.004-.562 2.358 2.358 0 01.157-.577c-.027.066 0 0 .005-.01a2.368 2.368 0 01.262-.44c.042-.056-.036.045.007-.01l.04-.046a2.394 2.394 0 01.32-.313c.054-.044-.047.035.009-.007a2.369 2.369 0 01.44-.262c.01-.005.076-.033.01-.005a2.34 2.34 0 01.502-.146 2.403 2.403 0 01.617-.009c.072.009-.06-.008.012.002a2.34 2.34 0 01.544.153c-.066-.027-.001 0 .01.005a2.374 2.374 0 01.433.257l.047.038a2.368 2.368 0 01.328.334c.044.054-.035-.047.008.009a2.375 2.375 0 01.278.477c-.029-.065 0 0 .004.011a2.36 2.36 0 01.136.496l.008.064c.008.08.011.16.011.24a.277.277 0 00.274.273.276.276 0 00.273-.274 2.67 2.67 0 00-.887-1.977 2.65 2.65 0 00-2.085-.649 2.69 2.69 0 00-1.87 1.146 2.56 2.56 0 00-.409 1c-.066.37-.05.738.022 1.107.136.71.485 1.397.966 1.936.448.5 1.104.889 1.797.805.733-.088 1.306-.587 1.721-1.168A4.043 4.043 0 008.92 6.01a2.32 2.32 0 00.007-.187.276.276 0 00-.273-.273.276.276 0 00-.274.273zm2.387 6.39v1.899l.273-.274H1.521l.274.274v-1.889a3.146 3.146 0 01.01-.228c.001-.022.004-.043.006-.065a2.425 2.425 0 01.144-.54c.004-.012.032-.077.004-.012a2.48 2.48 0 01.29-.496c-.041.055.001 0 .009-.01l.039-.047a2.457 2.457 0 01.274-.274l.048-.04c.009-.007.064-.05.009-.008a2.478 2.478 0 01.44-.265l.056-.025c-.064.028 0 0 .012-.004a2.47 2.47 0 01.507-.14c.012-.002.085-.011.012-.002l.086-.009c.226-.021.457-.01.684-.01h.104l-.193-.08 1.443 1.842.316.403c.084.108.302.108.386 0l1.438-1.85.307-.395-.193.08h.556a2.894 2.894 0 01.296.017c.073.008-.06-.01.013.001a2.663 2.663 0 01.33.074 2.387 2.387 0 01.178.06l.031.013a2.435 2.435 0 01.497.29c-.056-.041 0 0 .009.008a2.426 2.426 0 01.361.361c.008.01.05.065.008.01l.036.049a2.415 2.415 0 01.254.447c-.028-.065 0 0 .005.011a2.417 2.417 0 01.146.563 2.265 2.265 0 01.014.26c0 .15.124.274.273.274a.276.276 0 00.274-.273 2.736 2.736 0 00-.876-1.995A2.771 2.771 0 008.543 9.5H8.19c-.114 0-.273-.02-.351.081l-.171.22-.858 1.105-.715.92h.386c-.48-.615-.962-1.229-1.443-1.843L4.76 9.63c-.03-.037-.049-.065-.093-.091-.098-.058-.244-.038-.354-.038-.267 0-.529-.001-.794.038-.36.053-.71.192-1.016.386a2.724 2.724 0 00-1.207 1.784c-.076.412-.048.843-.048 1.26v1.143c0 .149.124.273.273.273h9.519c.15 0 .274-.124.274-.273v-1.9a.276.276 0 00-.274-.272.276.276 0 00-.273.273zm2.97-5.353a2.3 2.3 0 01-.012.226c-.002.015-.011.082 0 .004l-.01.059a2.996 2.996 0 01-.184.631l-.005.012-.026.058a3.228 3.228 0 01-.265.458l-.036.05c-.007.01-.05.066-.008.012a2.508 2.508 0 01-.35.363c-.01.008-.064.05-.006.005l-.047.034a1.724 1.724 0 01-.261.15c-.06.027.057-.022-.003.001-.074.03-.15.05-.228.064-.016.003-.08.011 0 .001a1.1 1.1 0 01-.163.007c-.022 0-.142-.014-.055-.002a1.186 1.186 0 01-.28-.076c.071.028.011.004-.003-.002a1.546 1.546 0 01-.212-.12c-.017-.012-.114-.084-.054-.038a1.979 1.979 0 01-.276-.26 2.558 2.558 0 01-.08-.095c-.007-.009-.05-.065-.008-.01l-.037-.05a2.947 2.947 0 01-.324-.57c-.029-.065.022.055-.005-.012a2.906 2.906 0 01-.179-.63c-.003-.016-.012-.084-.001-.006a1.972 1.972 0 01-.014-.373c0-.021.003-.043.005-.064 0-.013.01-.086 0-.013a1.834 1.834 0 01.12-.444c-.026.066 0 .001.006-.01a1.874 1.874 0 01.2-.332c-.042.056 0 0 .008-.009a1.883 1.883 0 01.286-.276 1.846 1.846 0 01.3-.176c.01-.006.075-.033.01-.006a1.776 1.776 0 01.401-.114c.013-.002.085-.011.012-.002a1.83 1.83 0 01.433 0c-.073-.008-.002 0 .011.002l.063.011a1.825 1.825 0 01.3.088c.012.004.077.032.012.004a1.824 1.824 0 01.304.17l.05.035c.056.04-.046-.036.008.007a1.867 1.867 0 01.247.242l.04.047a1.862 1.862 0 01.183.31c.004.01.032.075.004.01l.023.057a1.822 1.822 0 01.095.365c.011.072-.007-.06.001.012l.006.064c.003.044.004.088.004.131.001.15.124.274.274.274a.276.276 0 00.273-.274A2.14 2.14 0 0013.177 5a2.131 2.131 0 00-2.19.107 2.136 2.136 0 00-.924 1.94c.064.727.405 1.46.93 1.967.248.24.561.437.904.5a1.52 1.52 0 001.038-.187c.634-.36 1.055-1.073 1.247-1.757.064-.23.101-.472.102-.71a.276.276 0 00-.273-.273.276.276 0 00-.274.273zm-1.367 4.963a19904.973 19904.973 0 001.353-1.706l-.194.08c.198 0 .398-.008.595.006l.065.007c.073.008-.06-.01.012.002a1.833 1.833 0 01.385.104c.066.026-.053-.023.012.005a1.689 1.689 0 01.271.148c.017.01.034.023.05.034.012.008.085.063.028.019a1.89 1.89 0 01.324.327 1.886 1.886 0 01.185.32c.006.011.032.076.006.011a1.975 1.975 0 01.097.32l.012.064c.002.012.012.084.002.012.007.05.01.1.013.15.003.059.002.117.002.175v1.386l.274-.273h-3.686a.276.276 0 00-.273.273c0 .15.124.273.274.273h3.685a.275.275 0 00.273-.273v-1.162c0-.161.006-.324-.008-.485a2.158 2.158 0 00-1.234-1.783 2.305 2.305 0 00-.982-.207h-.341c-.096 0-.19.025-.251.102a1591.726 1591.726 0 00-1.336 1.684c-.092.117-.114.273 0 .387.096.096.294.117.387 0z"/></g><defs><clipPath id="clip0_1_656"><path fill="#fff" transform="translate(.62 .697)" d="M0 0h16v16H0z"/></clipPath></defs></svg>