<svg width="41" height="41" fill="none" xmlns="http://www.w3.org/2000/svg"><rect x=".594" y=".674" width="40" height="40" rx="4" fill="#F8D7CE"/><g clip-path="url(#clip0_1_1405)" fill="#C53701"><path d="M16.827 14.44h5.133a1.1 1.1 0 000-2.2h-5.133a1.1 1.1 0 100 2.2zm0-1.466h5.133a.367.367 0 010 .733h-5.133a.367.367 0 110-.733z"/><path d="M27.093 18.474v-5.716a.725.725 0 00-.213-.517l-2.353-2.353a.725.725 0 00-.517-.214H12.793a1.1 1.1 0 00-1.1 1.1v18.333a1.1 1.1 0 001.1 1.1h10.161a6.599 6.599 0 104.14-11.733zm-2.566-7.549l1.316 1.316h-.95a.367.367 0 01-.366-.367v-.949zM12.793 29.474a.367.367 0 01-.366-.367V10.774a.366.366 0 01.366-.367h11v1.467a1.1 1.1 0 001.1 1.1h1.467v5.543a6.586 6.586 0 00-4.172 10.957h-9.395zm14.3 1.466a5.867 5.867 0 115.867-5.866 5.874 5.874 0 01-5.867 5.866z"/><path d="M30.393 22.875a1.083 1.083 0 00-.323-.775 1.118 1.118 0 00-1.555 0l-1.422 1.422L25.67 22.1a1.12 1.12 0 00-1.553-.004 1.09 1.09 0 000 1.555l1.422 1.424-1.422 1.422a1.092 1.092 0 000 1.554 1.119 1.119 0 001.552 0l1.423-1.424 1.424 1.424a1.098 1.098 0 101.55-1.554l-1.422-1.422 1.422-1.422a1.088 1.088 0 00.326-.778zm-.844.256l-1.683 1.683a.366.366 0 000 .519l1.683 1.685v.002a.357.357 0 010 .513.367.367 0 01-.516 0L27.35 25.85a.367.367 0 00-.518 0l-1.683 1.681a.367.367 0 01-.598-.396.356.356 0 01.08-.117l1.684-1.683a.366.366 0 000-.518l-1.682-1.686a.356.356 0 01.004-.515.364.364 0 01.513 0l1.683 1.683a.367.367 0 00.519 0l1.684-1.684a.363.363 0 01.515.004.355.355 0 010 .513h-.002zM14.26 16.64h10.267a.367.367 0 000-.734H14.26a.367.367 0 000 .734zm0 1.834h9.167a.367.367 0 000-.734H14.26a.367.367 0 000 .734zm7.334 1.1H19.76a.367.367 0 000 .734h1.834a.367.367 0 000-.734zm-7.334.734h4.034a.367.367 0 000-.734H14.26a.367.367 0 000 .734zm5.867 1.098h-3.3a.367.367 0 000 .734h3.3a.367.367 0 100-.734zm-5.867.734h1.1a.367.367 0 000-.734h-1.1a.367.367 0 000 .734zm5.134 1.1H14.26a.367.367 0 000 .734h5.134a.367.367 0 000-.734zm-.734 1.834h-4.4a.367.367 0 000 .734h4.4a.367.367 0 000-.734zm-.367 1.832H14.26a.367.367 0 000 .734h4.033a.367.367 0 000-.734z"/></g><defs><clipPath id="clip0_1_1405"><path fill="#fff" transform="translate(11.693 9.674)" d="M0 0h22v22H0z"/></clipPath></defs></svg>