<svg width="17" height="17" fill="none" xmlns="http://www.w3.org/2000/svg"><g clip-path="url(#clip0_1_673)" fill="#0D7D83"><path d="M5.436 11.127l-1.61-1.61a1.657 1.657 0 00-1.178-.488H1.533a.333.333 0 000 .667h1.115c.263 0 .52.107.707.293l1.04 1.04H1.533a.333.333 0 000 .667H5.2a.334.334 0 00.236-.57zM5.2 12.699a.333.333 0 00-.333.333v1c0 .184-.15.333-.333.333h-2a.334.334 0 01-.333-.333v-1.333a.334.334 0 00-.667 0v1.333c0 .551.449 1 1 1h2c.551 0 1-.449 1-1v-1a.333.333 0 00-.333-.333z"/><path d="M15.354 7.07c-.918-.48-2.98-.705-6.487-.705s-5.569.224-6.487.705C1.333 7.617.867 8.53.867 10.032c0 1.444.33 2.7.345 2.752.038.146.17.248.322.248h2.92l1.264.631a.334.334 0 00.149.036h6a.329.329 0 00.149-.036l1.263-.631H16.2a.333.333 0 00.322-.248c.014-.052.345-1.308.345-2.752 0-1.502-.466-2.415-1.513-2.962zm.583 5.295H13.2a.33.33 0 00-.15.035l-1.263.632H5.946L4.683 12.4a.335.335 0 00-.15-.035H1.799a11.463 11.463 0 01-.264-2.333c0-1.255.334-1.943 1.154-2.371.798-.418 2.877-.63 6.179-.63 3.302 0 5.38.212 6.18.63.819.428 1.153 1.116 1.153 2.37 0 .992-.171 1.91-.263 2.334z"/><path d="M16.2 11.03h-2.86l1.04-1.041c.186-.186.444-.293.707-.293h1.115a.333.333 0 000-.667h-1.115c-.445 0-.863.174-1.178.488l-1.61 1.61a.333.333 0 00.236.57h3.667a.333.333 0 000-.668zm-3.364-1.809a.334.334 0 00-.302-.192H5.2a.334.334 0 00-.256.547l1.667 2c.063.076.157.12.256.12h4a.334.334 0 00.256-.12l1.667-2c.083-.1.1-.238.046-.355zM10.71 11.03H7.023L5.912 9.696h5.91l-1.112 1.333zm4.796-3.797c-.38-.872-1.649-3.746-2.09-4.122-.55-.467-2.125-.746-4.216-.746h-.667c-2.09 0-3.666.279-4.216.746-.441.375-1.711 3.249-2.09 4.12a.334.334 0 00.612.267c.753-1.733 1.674-3.658 1.91-3.879.257-.218 1.343-.587 3.784-.587H9.2c2.441 0 3.527.37 3.783.586.238.222 1.158 2.147 1.91 3.88a.334.334 0 00.613-.265zm.361 5.132a.334.334 0 00-.334.334v1.333c0 .184-.15.333-.333.333h-2a.334.334 0 01-.333-.333v-1a.333.333 0 00-.667 0v1c0 .551.449 1 1 1h2c.551 0 1-.449 1-1v-1.333a.333.333 0 00-.333-.334z"/></g><defs><clipPath id="clip0_1_673"><path fill="#fff" transform="translate(.867 .697)" d="M0 0h16v16H0z"/></clipPath></defs></svg>