<svg width="41" height="41" fill="none" xmlns="http://www.w3.org/2000/svg"><rect x=".545" y=".207" width="40" height="40" rx="4" fill="#FFF5D9"/><path d="M14.955 25.588a.418.418 0 00-.429.021l-2.5 1.667a.427.427 0 00-.183.346v1.25c0 .229.187.416.416.416h2.5c.23 0 .417-.187.417-.416v-2.917a.41.41 0 00-.22-.367zm-.612 2.867h-1.667v-.608l1.667-1.113v1.721zm5.613-6.617a.418.418 0 00-.43.021l-2.5 1.667a.42.42 0 00-.187.346v5c0 .229.187.416.417.416h2.5a.417.417 0 00.416-.416v-6.667a.399.399 0 00-.216-.367zm-.613 6.617h-1.667v-4.358l1.667-1.113v5.471zm5.591-7.042a.416.416 0 00-.441.059l-2.5 2.083a.405.405 0 00-.15.317v5c0 .229.187.416.416.416h2.5c.23 0 .417-.187.417-.416v-7.084a.406.406 0 00-.242-.375zm-.591 7.042h-1.667v-4.387l1.667-1.388v5.775zm5.591-13.292a.416.416 0 00-.441.059l-2.5 2.083a.405.405 0 00-.15.317v11.25c0 .229.187.416.416.416h2.5c.23 0 .417-.187.417-.416V15.538a.406.406 0 00-.242-.375zm-.591 13.292h-1.667V17.818l1.667-1.388v12.025zm-2.317-12.926a.413.413 0 00.413-.38l.225-2.457a.408.408 0 00-.375-.483l-2.488-.23a.416.416 0 10-.08.83l1.447.133-7 5.495-1.942-2.07a.417.417 0 00-.562-.042l-5.496 4.3a.413.413 0 00.258.741.43.43 0 00.259-.087l5.196-4.07 1.941 2.07a.417.417 0 00.563.042l7.366-5.771-.141 1.525a.416.416 0 00.375.454h.041z" fill="#C68D04"/></svg>