<svg width="947" height="341" fill="none" xmlns="http://www.w3.org/2000/svg"><path d="M42.059 268.361c0 1.27-.217 2.213-.65 2.83-.434.618-1.112.926-2.034.926-.91 0-1.584-.301-2.022-.902-.437-.606-.663-1.508-.68-2.707v-1.447c0-1.254.218-2.186.651-2.795.434-.61 1.114-.914 2.04-.914.917 0 1.593.294 2.027.884.433.586.656 1.493.668 2.719v1.406zm-1.084-1.482c0-.918-.13-1.586-.387-2.004-.258-.422-.666-.633-1.225-.633-.554 0-.959.209-1.213.627-.253.418-.384 1.061-.392 1.928v1.734c0 .922.133 1.604.398 2.045.27.438.676.656 1.219.656.535 0 .932-.207 1.19-.621.261-.414.398-1.066.41-1.957v-1.775zM33.272 220h-1.09v-7.225l-2.186.803v-.984l3.106-1.166h.17V220zm8.525-3.639c0 1.27-.217 2.213-.65 2.83-.434.618-1.112.926-2.034.926-.91 0-1.584-.301-2.021-.902-.438-.606-.664-1.508-.68-2.707v-1.447c0-1.254.217-2.186.65-2.795.434-.61 1.114-.914 2.04-.914.918 0 1.593.294 2.027.884.434.586.656 1.493.668 2.719v1.406zm-1.084-1.482c0-.918-.129-1.586-.387-2.004-.258-.422-.666-.633-1.224-.633-.555 0-.96.209-1.213.627-.254.418-.385 1.061-.393 1.928v1.734c0 .922.133 1.604.398 2.045.27.438.676.656 1.22.656.534 0 .93-.207 1.189-.621.262-.414.398-1.066.41-1.957v-1.775zM35.299 168h-5.59v-.779l2.953-3.282c.438-.496.738-.898.903-1.207.167-.312.251-.634.251-.966 0-.446-.134-.811-.404-1.096-.27-.285-.629-.428-1.078-.428-.54 0-.959.154-1.26.463-.297.305-.445.731-.445 1.277h-1.084c0-.785.252-1.42.756-1.904.508-.484 1.185-.726 2.033-.726.793 0 1.42.209 1.88.627.462.414.692.966.692 1.658 0 .84-.535 1.84-1.605 3l-2.285 2.478h4.283V168zm6.498-3.639c0 1.27-.217 2.213-.65 2.83-.434.618-1.112.926-2.034.926-.91 0-1.584-.301-2.021-.902-.438-.606-.664-1.508-.68-2.707v-1.447c0-1.254.217-2.186.65-2.795.434-.61 1.114-.914 2.04-.914.918 0 1.593.294 2.027.884.434.586.656 1.493.668 2.719v1.406zm-1.084-1.482c0-.918-.129-1.586-.387-2.004-.258-.422-.666-.633-1.224-.633-.555 0-.96.209-1.213.627-.254.418-.385 1.061-.393 1.928v1.734c0 .922.133 1.604.398 2.045.27.438.676.656 1.22.656.534 0 .93-.207 1.189-.621.262-.414.398-1.066.41-1.957v-1.775zm-9.428-52.672h.815c.511-.008.914-.143 1.207-.404.293-.262.44-.615.44-1.061 0-1-.499-1.5-1.495-1.5-.469 0-.844.135-1.125.404-.277.266-.416.62-.416 1.061h-1.084c0-.676.246-1.236.738-1.682.496-.449 1.125-.673 1.887-.673.805 0 1.435.212 1.892.638.458.426.686 1.018.686 1.776 0 .371-.121.73-.363 1.078a2.162 2.162 0 01-.979.779c.469.148.83.395 1.084.738.258.344.387.764.387 1.26 0 .766-.25 1.373-.75 1.822-.5.45-1.15.674-1.951.674-.801 0-1.453-.217-1.957-.65-.5-.434-.75-1.006-.75-1.717h1.09c0 .449.146.809.44 1.078.292.27.685.404 1.177.404.523 0 .924-.136 1.201-.41.277-.273.416-.666.416-1.177 0-.497-.152-.877-.457-1.143-.305-.266-.744-.402-1.318-.41h-.815v-.885zm10.512 1.154c0 1.27-.217 2.213-.65 2.83-.434.618-1.112.926-2.034.926-.91 0-1.584-.301-2.021-.902-.438-.606-.664-1.508-.68-2.707v-1.447c0-1.254.217-2.186.65-2.795.434-.61 1.114-.914 2.04-.914.918 0 1.593.294 2.027.884.434.586.656 1.493.668 2.719v1.406zm-1.084-1.482c0-.918-.129-1.586-.387-2.004-.258-.422-.666-.633-1.224-.633-.555 0-.96.209-1.213.627-.254.418-.385 1.061-.393 1.928v1.734c0 .922.133 1.604.398 2.045.27.438.676.656 1.22.656.534 0 .93-.207 1.189-.621.262-.414.398-1.066.41-1.957v-1.775zm-6.428-48.744h1.184v.885h-1.184V64h-1.09v-1.98h-3.884v-.64l3.82-5.911h1.154v5.666zm-3.744 0h2.654V56.95l-.129.234-2.525 3.95zm11.256-.774c0 1.27-.217 2.213-.65 2.83-.434.618-1.112.926-2.034.926-.91 0-1.584-.3-2.021-.902-.438-.606-.664-1.508-.68-2.707V59.06c0-1.253.217-2.185.65-2.794.434-.61 1.114-.914 2.04-.914.918 0 1.593.295 2.027.884.434.586.656 1.492.668 2.72v1.405zm-1.084-1.482c0-.918-.129-1.586-.387-2.004-.258-.422-.666-.633-1.224-.633-.555 0-.96.21-1.213.627-.254.418-.385 1.06-.393 1.928v1.734c0 .922.133 1.604.398 2.045.27.438.676.656 1.22.656.534 0 .93-.207 1.189-.62.262-.415.398-1.067.41-1.958V58.88zM30.207 6.723l.434-4.254h4.37V3.47h-3.45l-.258 2.326c.418-.246.892-.37 1.424-.37.777 0 1.394.259 1.851.774.457.512.686 1.205.686 2.08 0 .88-.239 1.573-.715 2.08-.473.504-1.135.756-1.986.756-.754 0-1.37-.209-1.846-.627-.477-.418-.748-.996-.815-1.734h1.026c.066.488.24.857.521 1.107.281.246.653.37 1.113.37.504 0 .899-.173 1.184-.516.29-.344.434-.819.434-1.424 0-.57-.157-1.027-.47-1.371-.308-.348-.72-.522-1.235-.522-.473 0-.844.104-1.114.31l-.287.235-.867-.222zm11.59.638c0 1.27-.217 2.213-.65 2.83-.434.618-1.112.926-2.034.926-.91 0-1.584-.3-2.021-.902-.438-.606-.664-1.508-.68-2.707V6.06c0-1.254.217-2.186.65-2.795.434-.61 1.114-.914 2.04-.914.918 0 1.593.294 2.027.884.434.586.656 1.493.668 2.72V7.36zM40.713 5.88c0-.918-.129-1.586-.387-2.004-.258-.422-.666-.633-1.224-.633-.555 0-.96.21-1.213.627-.254.418-.385 1.06-.393 1.928V7.53c0 .922.133 1.604.398 2.045.27.438.676.656 1.22.656.534 0 .93-.207 1.189-.62.262-.415.398-1.067.41-1.958V5.88z" fill="#5E6985"/><path stroke="#DFDFE4" d="M50 267.5h897m-897-52h897m-897-52h897m-897-52h897m-897-52h897M50 7.5h897"/><path d="M9 144.711v.942l-5.479 3.579H9v.943H1.89v-.943l5.504-3.588H1.89v-.933H9zm-2.69-1.284a3.14 3.14 0 01-1.397-.303 2.294 2.294 0 01-.957-.85 2.322 2.322 0 01-.337-1.245c0-.719.25-1.3.747-1.743.498-.446 1.16-.669 1.988-.669h.063c.514 0 .977.099 1.387.298.407.195.724.477.952.845.228.364.342.784.342 1.26 0 .716-.25 1.297-.747 1.743-.498.442-1.158.664-1.978.664H6.31zm.107-.908c.586 0 1.056-.136 1.411-.406a1.31 1.31 0 00.532-1.093 1.3 1.3 0 00-.537-1.094c-.361-.27-.866-.405-1.513-.405-.58 0-1.049.138-1.407.415a1.302 1.302 0 00-.542 1.093c0 .446.178.806.533 1.079.354.274.862.411 1.523.411zm-3.98-6.26h1.28v-.987h.698v.987h3.276c.212 0 .372-.044.479-.132.104-.088.156-.238.156-.449 0-.104-.02-.248-.058-.43H9c.065.238.098.469.098.693 0 .404-.122.708-.367.913-.244.206-.59.308-1.04.308H4.415v.962h-.698v-.962h-1.28v-.903zm5.162-7.603a.656.656 0 00-.567.279c-.136.182-.254.503-.351.961-.098.456-.215.819-.352 1.089-.137.267-.3.466-.488.596a1.18 1.18 0 01-.674.19c-.433 0-.8-.182-1.099-.546-.3-.368-.449-.837-.449-1.407 0-.599.155-1.084.464-1.455.31-.374.705-.561 1.187-.561v.908c-.248 0-.461.106-.64.317-.18.209-.269.472-.269.791 0 .329.072.586.215.772.143.185.33.278.562.278a.547.547 0 00.493-.259c.11-.172.216-.483.317-.932.101-.453.222-.819.362-1.099.14-.28.309-.487.507-.62.196-.137.435-.205.718-.205.472 0 .851.189 1.138.566.283.378.425.868.425 1.47 0 .423-.075.798-.225 1.123-.15.326-.358.581-.625.767-.27.182-.561.273-.874.273v-.903a.946.946 0 00.723-.361c.175-.228.263-.528.263-.899 0-.342-.068-.615-.205-.82-.14-.209-.325-.313-.556-.313zm-5.162-3.305h1.28v-.987h.698v.987h3.276c.212 0 .372-.044.479-.132.104-.088.156-.238.156-.449 0-.105-.02-.248-.058-.43H9c.065.237.098.469.098.693 0 .404-.122.708-.367.913-.244.205-.59.308-1.04.308H4.415v.962h-.698v-.962h-1.28v-.903zM9 120.043c-.104.052-.29.094-.557.127.437.42.655.921.655 1.504 0 .521-.147.949-.44 1.284a1.44 1.44 0 01-1.123.498c-.55 0-.976-.208-1.28-.625-.305-.42-.458-1.009-.458-1.768v-.878h-.415c-.316 0-.567.094-.752.283-.189.189-.283.467-.283.835 0 .322.081.592.244.81.163.218.36.327.59.327v.909a1.24 1.24 0 01-.761-.279 1.921 1.921 0 01-.586-.761 2.585 2.585 0 01-.215-1.06c0-.609.153-1.086.46-1.431.302-.345.72-.524 1.254-.537h2.432c.485 0 .87-.062 1.157-.185H9v.947zm-.688 1.499a1.59 1.59 0 00-.22-.806 1.327 1.327 0 00-.571-.551H6.437v.708c0 1.106.323 1.66.971 1.66.283 0 .505-.095.664-.283.16-.189.24-.432.24-.728zm-3.785-6.23a2.693 2.693 0 00-.034.444c0 .592.252.994.757 1.206H9v.903H3.717v-.879l.61-.014c-.472-.297-.708-.716-.708-1.26a.92.92 0 01.068-.4h.84zm-2.09-2.305h1.28v-.986h.698v.986h3.276c.212 0 .372-.044.479-.132.104-.088.156-.238.156-.449 0-.104-.02-.248-.058-.43H9c.065.238.098.469.098.693 0 .404-.122.708-.367.914-.244.205-.59.307-1.04.307H4.415v.962h-.698v-.962h-1.28v-.903zm6.66-4.238c0 .716-.234 1.298-.702 1.748-.472.449-1.102.673-1.89.673h-.166a3.19 3.19 0 01-1.402-.297 2.347 2.347 0 01-.966-.84 2.115 2.115 0 01-.352-1.172c0-.687.226-1.221.679-1.602.452-.381 1.1-.571 1.943-.571h.376v3.579c.521-.013.943-.164 1.265-.454.319-.293.478-.664.478-1.113 0-.319-.065-.589-.195-.811a2.041 2.041 0 00-.518-.581l.43-.552c.68.443 1.02 1.107 1.02 1.993zm-4.736.112c0 .364.134.67.4.918.264.247.635.4 1.114.459v-2.647h-.068c-.46.026-.814.15-1.065.371-.254.222-.38.521-.38.899zm1.953-3.003c-.81 0-1.461-.192-1.953-.576a1.82 1.82 0 01-.742-1.509c0-.619.212-1.108.635-1.47H1.5v-.903H9v.83l-.566.044c.442.361.664.864.664 1.509 0 .612-.251 1.111-.752 1.499-.502.384-1.156.576-1.963.576h-.069zm.103-.903c.599 0 1.068-.124 1.406-.371.339-.248.508-.59.508-1.026 0-.573-.257-.991-.771-1.255H5.133c-.498.27-.747.685-.747 1.245 0 .443.17.788.512 1.036.342.247.848.371 1.519.371z" fill="#929EAF"/><path stroke="#DFDFE4" d="M50.5 267v5m128-5v5m128-5v5m128-5v5m128-5v5m128-5v5m128-5v5m128-5v5"/><path d="M79.751 282.145h-2.979L76.103 284h-.966l2.715-7.109h.82l2.72 7.109h-.962l-.679-1.855zm-2.695-.772h2.417l-1.211-3.325-1.206 3.325zm6.65 1.401l1.309-4.057h.922L84.043 284h-.689l-1.914-5.283h.923l1.343 4.057zm2.817-1.46c0-.823.19-1.477.572-1.962.38-.489.885-.733 1.513-.733.645 0 1.148.228 1.51.684l.043-.586h.825v5.156c0 .684-.203 1.222-.61 1.616-.404.394-.947.591-1.63.591-.382 0-.754-.081-1.119-.244-.365-.163-.643-.386-.835-.669l.469-.542c.387.479.86.718 1.42.718.44 0 .782-.124 1.026-.371.247-.248.371-.596.371-1.045v-.454c-.361.416-.854.625-1.48.625-.618 0-1.12-.249-1.503-.747-.381-.498-.572-1.177-.572-2.037zm.909.103c0 .596.122 1.064.366 1.406.244.339.586.508 1.025.508.57 0 .988-.259 1.255-.776v-2.412c-.277-.505-.692-.757-1.245-.757-.44 0-.783.171-1.03.512-.248.342-.371.848-.371 1.519zm11.767-.449c0 1.058-.18 1.844-.542 2.358-.361.514-.926.772-1.694.772-.759 0-1.32-.251-1.685-.752-.364-.505-.553-1.257-.566-2.256v-1.206c0-1.045.18-1.822.542-2.329.361-.508.928-.762 1.7-.762.764 0 1.327.246 1.689.737.36.489.546 1.244.556 2.266v1.172zm-.903-1.236c0-.765-.108-1.321-.322-1.67-.215-.351-.555-.527-1.02-.527-.463 0-.8.174-1.012.523-.211.348-.32.883-.327 1.606v1.445c0 .769.11 1.337.332 1.704.225.365.563.547 1.016.547.446 0 .776-.172.991-.517.218-.345.332-.889.342-1.631v-1.48zm5.522 1.143a2.195 2.195 0 01-.678.542 1.82 1.82 0 01-.86.205c-.41 0-.768-.101-1.074-.303a1.971 1.971 0 01-.703-.849 2.922 2.922 0 01-.249-1.216c0-.475.089-.903.268-1.284.183-.381.44-.672.772-.874a2.19 2.19 0 011.162-.303c.703 0 1.257.264 1.66.791.407.524.611 1.24.611 2.148v.264c0 1.384-.274 2.394-.821 3.032-.547.635-1.372.961-2.475.977h-.176v-.762h.19c.746-.013 1.319-.207 1.719-.581.4-.377.619-.973.654-1.787zm-1.391 0c.302 0 .581-.093.835-.278.257-.186.444-.415.561-.689v-.361c0-.593-.128-1.074-.385-1.445-.258-.372-.583-.557-.977-.557-.397 0-.716.153-.957.459-.241.303-.361.703-.361 1.201 0 .485.115.885.346 1.201.235.313.547.469.938.469zm3.608 4.541l-.513-.352c.306-.426.466-.865.479-1.318v-.815h.884v.708c0 .328-.082.657-.244.986-.16.329-.362.592-.606.791zm9.038-1.416h-4.658v-.649l2.461-2.735c.365-.413.615-.748.752-1.006.14-.26.21-.529.21-.805 0-.371-.112-.676-.337-.913-.225-.238-.524-.357-.898-.357-.45 0-.8.129-1.05.386-.248.254-.371.609-.371 1.064h-.904c0-.654.21-1.183.63-1.587.423-.403.988-.605 1.695-.605.66 0 1.183.174 1.567.522.384.345.576.806.576 1.382 0 .7-.446 1.533-1.338 2.5l-1.904 2.066h3.569V284zm5.415-3.032c0 1.058-.18 1.844-.542 2.358-.361.514-.926.772-1.694.772-.759 0-1.32-.251-1.685-.752-.364-.505-.553-1.257-.566-2.256v-1.206c0-1.045.181-1.822.542-2.329.361-.508.928-.762 1.699-.762.765 0 1.328.246 1.69.737.361.489.547 1.244.556 2.266v1.172zm-.903-1.236c0-.765-.107-1.321-.322-1.67-.215-.351-.555-.527-1.021-.527-.462 0-.799.174-1.011.523-.211.348-.32.883-.327 1.606v1.445c0 .769.111 1.337.332 1.704.225.365.563.547 1.016.547.446 0 .776-.172.991-.517.218-.345.332-.889.342-1.631v-1.48zm6.719 4.268h-4.658v-.649l2.46-2.735c.365-.413.616-.748.752-1.006.14-.26.21-.529.21-.805 0-.371-.112-.676-.337-.913-.224-.238-.524-.357-.898-.357-.449 0-.799.129-1.05.386-.247.254-.371.609-.371 1.064h-.903c0-.654.21-1.183.63-1.587.423-.403.988-.605 1.694-.605.661 0 1.183.174 1.567.522.385.345.577.806.577 1.382 0 .7-.446 1.533-1.338 2.5l-1.905 2.066h3.57V284zm5.415-3.032c0 1.058-.181 1.844-.542 2.358-.362.514-.926.772-1.695.772-.758 0-1.32-.251-1.684-.752-.365-.505-.554-1.257-.567-2.256v-1.206c0-1.045.181-1.822.542-2.329.362-.508.928-.762 1.7-.762.765 0 1.328.246 1.689.737.361.489.547 1.244.557 2.266v1.172zm-.904-1.236c0-.765-.107-1.321-.322-1.67-.215-.351-.555-.527-1.02-.527-.463 0-.799.174-1.011.523-.212.348-.321.883-.327 1.606v1.445c0 .769.11 1.337.332 1.704.224.365.563.547 1.015.547.446 0 .777-.172.992-.517.218-.345.332-.889.341-1.631v-1.48zm78.936 2.413h-2.979l-.668 1.855h-.967l2.715-7.109h.82l2.72 7.109h-.962l-.679-1.855zm-2.695-.772h2.417l-1.211-3.325-1.206 3.325zm6.65 1.401l1.309-4.057h.923L214.043 284h-.689l-1.914-5.283h.923l1.343 4.057zm2.817-1.46c0-.823.191-1.477.572-1.962.381-.489.885-.733 1.513-.733.645 0 1.148.228 1.509.684l.044-.586h.825v5.156c0 .684-.203 1.222-.61 1.616-.404.394-.947.591-1.631.591-.381 0-.753-.081-1.118-.244-.365-.163-.643-.386-.835-.669l.469-.542c.387.479.861.718 1.421.718.439 0 .781-.124 1.025-.371.247-.248.371-.596.371-1.045v-.454c-.361.416-.854.625-1.479.625-.619 0-1.12-.249-1.504-.747-.381-.498-.572-1.177-.572-2.037zm.909.103c0 .596.122 1.064.366 1.406.244.339.586.508 1.025.508.57 0 .988-.259 1.255-.776v-2.412c-.277-.505-.692-.757-1.245-.757-.439 0-.783.171-1.03.512-.248.342-.371.848-.371 1.519zM227.71 284h-.908v-6.021l-1.822.669v-.82l2.588-.972h.142V284zm7.104-3.032c0 1.058-.18 1.844-.542 2.358-.361.514-.926.772-1.694.772-.758 0-1.32-.251-1.684-.752-.365-.505-.554-1.257-.567-2.256v-1.206c0-1.045.181-1.822.542-2.329.361-.508.928-.762 1.699-.762.765 0 1.328.246 1.69.737.361.489.547 1.244.556 2.266v1.172zm-.903-1.236c0-.765-.107-1.321-.322-1.67-.215-.351-.555-.527-1.021-.527-.462 0-.799.174-1.01.523-.212.348-.321.883-.328 1.606v1.445c0 .769.111 1.337.332 1.704.225.365.564.547 1.016.547.446 0 .776-.172.991-.517.218-.345.332-.889.342-1.631v-1.48zm2.124 5.684l-.513-.352c.306-.426.466-.865.479-1.318v-.815h.884v.708c0 .328-.082.657-.244.986-.16.329-.362.592-.606.791zm9.038-1.416h-4.658v-.649l2.461-2.735c.365-.413.615-.748.752-1.006.14-.26.21-.529.21-.805 0-.371-.112-.676-.337-.913-.225-.238-.524-.357-.898-.357-.45 0-.8.129-1.05.386-.248.254-.371.609-.371 1.064h-.904c0-.654.21-1.183.63-1.587.423-.403.988-.605 1.695-.605.66 0 1.183.174 1.567.522.384.345.576.806.576 1.382 0 .7-.446 1.533-1.338 2.5l-1.904 2.066h3.569V284zm5.415-3.032c0 1.058-.18 1.844-.542 2.358-.361.514-.926.772-1.694.772-.759 0-1.32-.251-1.685-.752-.364-.505-.553-1.257-.566-2.256v-1.206c0-1.045.181-1.822.542-2.329.361-.508.928-.762 1.699-.762.765 0 1.328.246 1.69.737.361.489.547 1.244.556 2.266v1.172zm-.903-1.236c0-.765-.107-1.321-.322-1.67-.215-.351-.555-.527-1.021-.527-.462 0-.799.174-1.011.523-.211.348-.32.883-.327 1.606v1.445c0 .769.111 1.337.332 1.704.225.365.563.547 1.016.547.446 0 .776-.172.991-.517.218-.345.332-.889.342-1.631v-1.48zm6.719 4.268h-4.658v-.649l2.46-2.735c.365-.413.616-.748.752-1.006.14-.26.21-.529.21-.805 0-.371-.112-.676-.337-.913-.224-.238-.524-.357-.898-.357-.449 0-.799.129-1.05.386-.247.254-.371.609-.371 1.064h-.903c0-.654.21-1.183.63-1.587.423-.403.988-.605 1.694-.605.661 0 1.183.174 1.567.522.385.345.577.806.577 1.382 0 .7-.446 1.533-1.338 2.5l-1.905 2.066h3.57V284zm5.415-3.032c0 1.058-.181 1.844-.542 2.358-.362.514-.926.772-1.695.772-.758 0-1.32-.251-1.684-.752-.365-.505-.554-1.257-.567-2.256v-1.206c0-1.045.181-1.822.542-2.329.362-.508.928-.762 1.7-.762.765 0 1.328.246 1.689.737.361.489.547 1.244.557 2.266v1.172zm-.904-1.236c0-.765-.107-1.321-.322-1.67-.215-.351-.555-.527-1.02-.527-.463 0-.799.174-1.011.523-.212.348-.321.883-.327 1.606v1.445c0 .769.11 1.337.332 1.704.224.365.563.547 1.015.547.446 0 .777-.172.992-.517.218-.345.332-.889.341-1.631v-1.48zm78.936 2.413h-2.979l-.668 1.855h-.967l2.715-7.109h.82l2.72 7.109h-.962l-.679-1.855zm-2.695-.772h2.417l-1.211-3.325-1.206 3.325zm6.65 1.401l1.309-4.057h.923L344.043 284h-.689l-1.914-5.283h.923l1.343 4.057zm2.817-1.46c0-.823.191-1.477.572-1.962.381-.489.885-.733 1.513-.733.645 0 1.148.228 1.509.684l.044-.586h.825v5.156c0 .684-.203 1.222-.61 1.616-.404.394-.947.591-1.631.591-.381 0-.753-.081-1.118-.244-.365-.163-.643-.386-.835-.669l.469-.542c.387.479.861.718 1.421.718.439 0 .781-.124 1.025-.371.247-.248.371-.596.371-1.045v-.454c-.361.416-.854.625-1.479.625-.619 0-1.12-.249-1.504-.747-.381-.498-.572-1.177-.572-2.037zm.909.103c0 .596.122 1.064.366 1.406.244.339.586.508 1.025.508.57 0 .988-.259 1.255-.776v-2.412c-.277-.505-.692-.757-1.245-.757-.439 0-.783.171-1.03.512-.248.342-.371.848-.371 1.519zM357.71 284h-.908v-6.021l-1.822.669v-.82l2.588-.972h.142V284zm5.615 0h-.908v-6.021l-1.821.669v-.82l2.588-.972h.141V284zm2.71 1.416l-.513-.352c.306-.426.466-.865.479-1.318v-.815h.884v.708c0 .328-.082.657-.244.986-.16.329-.362.592-.606.791zm9.038-1.416h-4.658v-.649l2.461-2.735c.365-.413.615-.748.752-1.006.14-.26.21-.529.21-.805 0-.371-.112-.676-.337-.913-.225-.238-.524-.357-.898-.357-.45 0-.8.129-1.05.386-.248.254-.371.609-.371 1.064h-.904c0-.654.21-1.183.63-1.587.423-.403.988-.605 1.695-.605.66 0 1.183.174 1.567.522.384.345.576.806.576 1.382 0 .7-.446 1.533-1.338 2.5l-1.904 2.066h3.569V284zm5.415-3.032c0 1.058-.18 1.844-.542 2.358-.361.514-.926.772-1.694.772-.759 0-1.32-.251-1.685-.752-.364-.505-.553-1.257-.566-2.256v-1.206c0-1.045.181-1.822.542-2.329.361-.508.928-.762 1.699-.762.765 0 1.328.246 1.69.737.361.489.547 1.244.556 2.266v1.172zm-.903-1.236c0-.765-.107-1.321-.322-1.67-.215-.351-.555-.527-1.021-.527-.462 0-.799.174-1.011.523-.211.348-.32.883-.327 1.606v1.445c0 .769.111 1.337.332 1.704.225.365.563.547 1.016.547.446 0 .776-.172.991-.517.218-.345.332-.889.342-1.631v-1.48zm6.719 4.268h-4.658v-.649l2.46-2.735c.365-.413.616-.748.752-1.006.14-.26.21-.529.21-.805 0-.371-.112-.676-.337-.913-.224-.238-.524-.357-.898-.357-.449 0-.799.129-1.05.386-.247.254-.371.609-.371 1.064h-.903c0-.654.21-1.183.63-1.587.423-.403.988-.605 1.694-.605.661 0 1.183.174 1.567.522.385.345.577.806.577 1.382 0 .7-.446 1.533-1.338 2.5l-1.905 2.066h3.57V284zm5.415-3.032c0 1.058-.181 1.844-.542 2.358-.362.514-.926.772-1.695.772-.758 0-1.32-.251-1.684-.752-.365-.505-.554-1.257-.567-2.256v-1.206c0-1.045.181-1.822.542-2.329.362-.508.928-.762 1.7-.762.765 0 1.328.246 1.689.737.361.489.547 1.244.557 2.266v1.172zm-.904-1.236c0-.765-.107-1.321-.322-1.67-.215-.351-.555-.527-1.02-.527-.463 0-.799.174-1.011.523-.212.348-.321.883-.327 1.606v1.445c0 .769.11 1.337.332 1.704.224.365.563.547 1.015.547.446 0 .777-.172.992-.517.218-.345.332-.889.341-1.631v-1.48zm78.936 2.413h-2.979l-.668 1.855h-.967l2.715-7.109h.82l2.72 7.109h-.962l-.679-1.855zm-2.695-.772h2.417l-1.211-3.325-1.206 3.325zm6.65 1.401l1.309-4.057h.923L474.043 284h-.689l-1.914-5.283h.923l1.343 4.057zm2.817-1.46c0-.823.191-1.477.572-1.962.381-.489.885-.733 1.513-.733.645 0 1.148.228 1.509.684l.044-.586h.825v5.156c0 .684-.203 1.222-.61 1.616-.404.394-.947.591-1.631.591-.381 0-.753-.081-1.118-.244-.365-.163-.643-.386-.835-.669l.469-.542c.387.479.861.718 1.421.718.439 0 .781-.124 1.025-.371.247-.248.371-.596.371-1.045v-.454c-.361.416-.854.625-1.479.625-.619 0-1.12-.249-1.504-.747-.381-.498-.572-1.177-.572-2.037zm.909.103c0 .596.122 1.064.366 1.406.244.339.586.508 1.025.508.57 0 .988-.259 1.255-.776v-2.412c-.277-.505-.692-.757-1.245-.757-.439 0-.783.171-1.03.512-.248.342-.371.848-.371 1.519zM487.71 284h-.908v-6.021l-1.822.669v-.82l2.588-.972h.142V284zm7.305 0h-4.659v-.649l2.461-2.735c.365-.413.616-.748.752-1.006.14-.26.21-.529.21-.805 0-.371-.112-.676-.337-.913-.224-.238-.524-.357-.898-.357-.449 0-.799.129-1.05.386-.247.254-.371.609-.371 1.064h-.903c0-.654.21-1.183.63-1.587.423-.403.988-.605 1.694-.605.661 0 1.183.174 1.567.522.384.345.577.806.577 1.382 0 .7-.446 1.533-1.338 2.5l-1.905 2.066h3.57V284zm1.02 1.416l-.513-.352c.306-.426.466-.865.479-1.318v-.815h.884v.708c0 .328-.082.657-.244.986-.16.329-.362.592-.606.791zm9.038-1.416h-4.658v-.649l2.461-2.735c.365-.413.615-.748.752-1.006.14-.26.21-.529.21-.805 0-.371-.112-.676-.337-.913-.225-.238-.524-.357-.898-.357-.45 0-.8.129-1.05.386-.248.254-.371.609-.371 1.064h-.904c0-.654.21-1.183.63-1.587.423-.403.988-.605 1.695-.605.66 0 1.183.174 1.567.522.384.345.576.806.576 1.382 0 .7-.446 1.533-1.338 2.5l-1.904 2.066h3.569V284zm5.415-3.032c0 1.058-.18 1.844-.542 2.358-.361.514-.926.772-1.694.772-.759 0-1.32-.251-1.685-.752-.364-.505-.553-1.257-.566-2.256v-1.206c0-1.045.181-1.822.542-2.329.361-.508.928-.762 1.699-.762.765 0 1.328.246 1.69.737.361.489.547 1.244.556 2.266v1.172zm-.903-1.236c0-.765-.107-1.321-.322-1.67-.215-.351-.555-.527-1.021-.527-.462 0-.799.174-1.011.523-.211.348-.32.883-.327 1.606v1.445c0 .769.111 1.337.332 1.704.225.365.563.547 1.016.547.446 0 .776-.172.991-.517.218-.345.332-.889.342-1.631v-1.48zm6.719 4.268h-4.658v-.649l2.46-2.735c.365-.413.616-.748.752-1.006.14-.26.21-.529.21-.805 0-.371-.112-.676-.337-.913-.224-.238-.524-.357-.898-.357-.449 0-.799.129-1.05.386-.247.254-.371.609-.371 1.064h-.903c0-.654.21-1.183.63-1.587.423-.403.988-.605 1.694-.605.661 0 1.183.174 1.567.522.385.345.577.806.577 1.382 0 .7-.446 1.533-1.338 2.5l-1.905 2.066h3.57V284zm5.415-3.032c0 1.058-.181 1.844-.542 2.358-.362.514-.926.772-1.695.772-.758 0-1.32-.251-1.684-.752-.365-.505-.554-1.257-.567-2.256v-1.206c0-1.045.181-1.822.542-2.329.362-.508.928-.762 1.7-.762.765 0 1.328.246 1.689.737.361.489.547 1.244.557 2.266v1.172zm-.904-1.236c0-.765-.107-1.321-.322-1.67-.215-.351-.555-.527-1.02-.527-.463 0-.799.174-1.011.523-.212.348-.321.883-.327 1.606v1.445c0 .769.11 1.337.332 1.704.224.365.563.547 1.015.547.446 0 .777-.172.992-.517.218-.345.332-.889.341-1.631v-1.48zm78.936 2.413h-2.979l-.668 1.855h-.967l2.715-7.109h.82l2.72 7.109h-.962l-.679-1.855zm-2.695-.772h2.417l-1.211-3.325-1.206 3.325zm6.65 1.401l1.309-4.057h.923L604.043 284h-.689l-1.914-5.283h.923l1.343 4.057zm2.817-1.46c0-.823.191-1.477.572-1.962.381-.489.885-.733 1.513-.733.645 0 1.148.228 1.509.684l.044-.586h.825v5.156c0 .684-.203 1.222-.61 1.616-.404.394-.947.591-1.631.591-.381 0-.753-.081-1.118-.244-.365-.163-.643-.386-.835-.669l.469-.542c.387.479.861.718 1.421.718.439 0 .781-.124 1.025-.371.247-.248.371-.596.371-1.045v-.454c-.361.416-.854.625-1.479.625-.619 0-1.12-.249-1.504-.747-.381-.498-.572-1.177-.572-2.037zm.909.103c0 .596.122 1.064.366 1.406.244.339.586.508 1.025.508.57 0 .988-.259 1.255-.776v-2.412c-.277-.505-.692-.757-1.245-.757-.439 0-.783.171-1.03.512-.248.342-.371.848-.371 1.519zM617.71 284h-.908v-6.021l-1.822.669v-.82l2.588-.972h.142V284zm3.96-3.994h.679c.426-.007.761-.119 1.005-.337.245-.218.367-.513.367-.884 0-.833-.415-1.25-1.245-1.25-.391 0-.704.112-.938.337-.231.221-.347.516-.347.884h-.903c0-.563.205-1.03.615-1.402.414-.374.938-.561 1.573-.561.67 0 1.196.177 1.577.532.381.355.571.848.571 1.48 0 .309-.101.608-.303.898-.198.29-.47.506-.815.65.39.123.692.328.903.615.215.286.322.636.322 1.05 0 .638-.208 1.144-.625 1.518-.416.374-.958.562-1.626.562-.667 0-1.21-.181-1.63-.542-.417-.362-.625-.839-.625-1.431h.908c0 .374.122.674.366.898.244.225.571.337.981.337.437 0 .77-.114 1.001-.341.232-.228.347-.555.347-.982 0-.413-.127-.731-.381-.952-.254-.221-.62-.335-1.098-.342h-.679v-.737zm4.365 5.41l-.513-.352c.306-.426.466-.865.479-1.318v-.815h.884v.708c0 .328-.082.657-.244.986-.16.329-.362.592-.606.791zm9.038-1.416h-4.658v-.649l2.461-2.735c.365-.413.615-.748.752-1.006.14-.26.21-.529.21-.805 0-.371-.112-.676-.337-.913-.225-.238-.524-.357-.898-.357-.45 0-.8.129-1.05.386-.248.254-.371.609-.371 1.064h-.904c0-.654.21-1.183.63-1.587.423-.403.988-.605 1.695-.605.66 0 1.183.174 1.567.522.384.345.576.806.576 1.382 0 .7-.446 1.533-1.338 2.5l-1.904 2.066h3.569V284zm5.415-3.032c0 1.058-.18 1.844-.542 2.358-.361.514-.926.772-1.694.772-.759 0-1.32-.251-1.685-.752-.364-.505-.553-1.257-.566-2.256v-1.206c0-1.045.181-1.822.542-2.329.361-.508.928-.762 1.699-.762.765 0 1.328.246 1.69.737.361.489.547 1.244.556 2.266v1.172zm-.903-1.236c0-.765-.107-1.321-.322-1.67-.215-.351-.555-.527-1.021-.527-.462 0-.799.174-1.011.523-.211.348-.32.883-.327 1.606v1.445c0 .769.111 1.337.332 1.704.225.365.563.547 1.016.547.446 0 .776-.172.991-.517.218-.345.332-.889.342-1.631v-1.48zm6.719 4.268h-4.658v-.649l2.46-2.735c.365-.413.616-.748.752-1.006.14-.26.21-.529.21-.805 0-.371-.112-.676-.337-.913-.224-.238-.524-.357-.898-.357-.449 0-.799.129-1.05.386-.247.254-.371.609-.371 1.064h-.903c0-.654.21-1.183.63-1.587.423-.403.988-.605 1.694-.605.661 0 1.183.174 1.567.522.385.345.577.806.577 1.382 0 .7-.446 1.533-1.338 2.5l-1.905 2.066h3.57V284zm5.415-3.032c0 1.058-.181 1.844-.542 2.358-.362.514-.926.772-1.695.772-.758 0-1.32-.251-1.684-.752-.365-.505-.554-1.257-.567-2.256v-1.206c0-1.045.181-1.822.542-2.329.362-.508.928-.762 1.7-.762.765 0 1.328.246 1.689.737.361.489.547 1.244.557 2.266v1.172zm-.904-1.236c0-.765-.107-1.321-.322-1.67-.215-.351-.555-.527-1.02-.527-.463 0-.799.174-1.011.523-.212.348-.321.883-.327 1.606v1.445c0 .769.11 1.337.332 1.704.224.365.563.547 1.015.547.446 0 .777-.172.992-.517.218-.345.332-.889.341-1.631v-1.48zm78.936 2.413h-2.979l-.668 1.855h-.967l2.715-7.109h.82l2.72 7.109h-.962l-.679-1.855zm-2.695-.772h2.417l-1.211-3.325-1.206 3.325zm6.65 1.401l1.309-4.057h.923L734.043 284h-.689l-1.914-5.283h.923l1.343 4.057zm2.817-1.46c0-.823.191-1.477.572-1.962.381-.489.885-.733 1.513-.733.645 0 1.148.228 1.509.684l.044-.586h.825v5.156c0 .684-.203 1.222-.61 1.616-.404.394-.947.591-1.631.591-.381 0-.753-.081-1.118-.244-.365-.163-.643-.386-.835-.669l.469-.542c.387.479.861.718 1.421.718.439 0 .781-.124 1.025-.371.247-.248.371-.596.371-1.045v-.454c-.361.416-.854.625-1.479.625-.619 0-1.12-.249-1.504-.747-.381-.498-.572-1.177-.572-2.037zm.909.103c0 .596.122 1.064.366 1.406.244.339.586.508 1.025.508.57 0 .988-.259 1.255-.776v-2.412c-.277-.505-.692-.757-1.245-.757-.439 0-.783.171-1.03.512-.248.342-.371.848-.371 1.519zM747.71 284h-.908v-6.021l-1.822.669v-.82l2.588-.972h.142V284zm6.46-2.388h.986v.738h-.986V284h-.908v-1.65h-3.238v-.533l3.184-4.926h.962v4.721zm-3.12 0h2.212v-3.486l-.108.195-2.104 3.291zm4.985 3.804l-.513-.352c.306-.426.466-.865.479-1.318v-.815h.884v.708c0 .328-.082.657-.244.986-.16.329-.362.592-.606.791zm9.038-1.416h-4.658v-.649l2.461-2.735c.365-.413.615-.748.752-1.006.14-.26.21-.529.21-.805 0-.371-.112-.676-.337-.913-.225-.238-.524-.357-.898-.357-.45 0-.8.129-1.05.386-.248.254-.371.609-.371 1.064h-.904c0-.654.21-1.183.63-1.587.423-.403.988-.605 1.695-.605.66 0 1.183.174 1.567.522.384.345.576.806.576 1.382 0 .7-.446 1.533-1.338 2.5l-1.904 2.066h3.569V284zm5.415-3.032c0 1.058-.18 1.844-.542 2.358-.361.514-.926.772-1.694.772-.759 0-1.32-.251-1.685-.752-.364-.505-.553-1.257-.566-2.256v-1.206c0-1.045.181-1.822.542-2.329.361-.508.928-.762 1.699-.762.765 0 1.328.246 1.69.737.361.489.547 1.244.556 2.266v1.172zm-.903-1.236c0-.765-.107-1.321-.322-1.67-.215-.351-.555-.527-1.021-.527-.462 0-.799.174-1.011.523-.211.348-.32.883-.327 1.606v1.445c0 .769.111 1.337.332 1.704.225.365.563.547 1.016.547.446 0 .776-.172.991-.517.218-.345.332-.889.342-1.631v-1.48zm6.719 4.268h-4.658v-.649l2.46-2.735c.365-.413.616-.748.752-1.006.14-.26.21-.529.21-.805 0-.371-.112-.676-.337-.913-.224-.238-.524-.357-.898-.357-.449 0-.799.129-1.05.386-.247.254-.371.609-.371 1.064h-.903c0-.654.21-1.183.63-1.587.423-.403.988-.605 1.694-.605.661 0 1.183.174 1.567.522.385.345.577.806.577 1.382 0 .7-.446 1.533-1.338 2.5l-1.905 2.066h3.57V284zm5.415-3.032c0 1.058-.181 1.844-.542 2.358-.362.514-.926.772-1.695.772-.758 0-1.32-.251-1.684-.752-.365-.505-.554-1.257-.567-2.256v-1.206c0-1.045.181-1.822.542-2.329.362-.508.928-.762 1.7-.762.765 0 1.328.246 1.689.737.361.489.547 1.244.557 2.266v1.172zm-.904-1.236c0-.765-.107-1.321-.322-1.67-.215-.351-.555-.527-1.02-.527-.463 0-.799.174-1.011.523-.212.348-.321.883-.327 1.606v1.445c0 .769.11 1.337.332 1.704.224.365.563.547 1.015.547.446 0 .777-.172.992-.517.218-.345.332-.889.341-1.631v-1.48zm78.936 2.413h-2.979l-.668 1.855h-.967l2.715-7.109h.82l2.72 7.109h-.962l-.679-1.855zm-2.695-.772h2.417l-1.211-3.325-1.206 3.325zm6.65 1.401l1.309-4.057h.923L864.043 284h-.689l-1.914-5.283h.923l1.343 4.057zm2.817-1.46c0-.823.191-1.477.572-1.962.381-.489.885-.733 1.513-.733.645 0 1.148.228 1.509.684l.044-.586h.825v5.156c0 .684-.203 1.222-.61 1.616-.404.394-.947.591-1.631.591-.381 0-.753-.081-1.118-.244-.365-.163-.643-.386-.835-.669l.469-.542c.387.479.861.718 1.421.718.439 0 .781-.124 1.025-.371.247-.248.371-.596.371-1.045v-.454c-.361.416-.854.625-1.479.625-.619 0-1.12-.249-1.504-.747-.381-.498-.572-1.177-.572-2.037zm.909.103c0 .596.122 1.064.366 1.406.244.339.586.508 1.025.508.57 0 .988-.259 1.255-.776v-2.412c-.277-.505-.692-.757-1.245-.757-.439 0-.783.171-1.03.512-.248.342-.371.848-.371 1.519zM877.71 284h-.908v-6.021l-1.822.669v-.82l2.588-.972h.142V284zm3.061-3.564l.362-3.545h3.642v.835h-2.876l-.214 1.938a2.292 2.292 0 011.186-.308c.648 0 1.162.215 1.543.645.381.426.571 1.004.571 1.733 0 .733-.198 1.311-.595 1.734-.394.42-.946.63-1.656.63-.628 0-1.141-.174-1.538-.523-.397-.348-.623-.83-.678-1.445h.854c.055.407.2.714.435.923.234.205.543.307.927.307.42 0 .749-.143.987-.429.241-.287.361-.682.361-1.187 0-.475-.13-.856-.391-1.142-.257-.29-.6-.435-1.03-.435-.394 0-.703.086-.928.259l-.239.195-.723-.185zm5.264 4.98l-.513-.352c.306-.426.466-.865.479-1.318v-.815h.884v.708c0 .328-.082.657-.244.986-.16.329-.362.592-.606.791zm9.038-1.416h-4.658v-.649l2.461-2.735c.365-.413.615-.748.752-1.006.14-.26.21-.529.21-.805 0-.371-.112-.676-.337-.913-.225-.238-.524-.357-.898-.357-.45 0-.8.129-1.05.386-.248.254-.371.609-.371 1.064h-.904c0-.654.21-1.183.63-1.587.423-.403.988-.605 1.695-.605.66 0 1.183.174 1.567.522.384.345.576.806.576 1.382 0 .7-.446 1.533-1.338 2.5l-1.904 2.066h3.569V284zm5.415-3.032c0 1.058-.18 1.844-.542 2.358-.361.514-.926.772-1.694.772-.759 0-1.32-.251-1.685-.752-.364-.505-.553-1.257-.566-2.256v-1.206c0-1.045.181-1.822.542-2.329.361-.508.928-.762 1.699-.762.765 0 1.328.246 1.69.737.361.489.547 1.244.556 2.266v1.172zm-.903-1.236c0-.765-.107-1.321-.322-1.67-.215-.351-.555-.527-1.021-.527-.462 0-.799.174-1.011.523-.211.348-.32.883-.327 1.606v1.445c0 .769.111 1.337.332 1.704.225.365.563.547 1.016.547.446 0 .776-.172.991-.517.218-.345.332-.889.342-1.631v-1.48zm6.719 4.268h-4.658v-.649l2.46-2.735c.365-.413.616-.748.752-1.006.14-.26.21-.529.21-.805 0-.371-.112-.676-.337-.913-.224-.238-.524-.357-.898-.357-.449 0-.799.129-1.05.386-.247.254-.371.609-.371 1.064h-.903c0-.654.21-1.183.63-1.587.423-.403.988-.605 1.694-.605.661 0 1.183.174 1.567.522.385.345.577.806.577 1.382 0 .7-.446 1.533-1.338 2.5l-1.905 2.066h3.57V284zm5.415-3.032c0 1.058-.181 1.844-.542 2.358-.362.514-.926.772-1.695.772-.758 0-1.32-.251-1.684-.752-.365-.505-.554-1.257-.567-2.256v-1.206c0-1.045.181-1.822.542-2.329.362-.508.928-.762 1.7-.762.765 0 1.328.246 1.689.737.361.489.547 1.244.557 2.266v1.172zm-.904-1.236c0-.765-.107-1.321-.322-1.67-.215-.351-.555-.527-1.02-.527-.463 0-.799.174-1.011.523-.212.348-.321.883-.327 1.606v1.445c0 .769.11 1.337.332 1.704.224.365.563.547 1.015.547.446 0 .777-.172.992-.517.218-.345.332-.889.341-1.631v-1.48z" fill="#929EAF"/><path fill="#0092E4" d="M80 244h49v23H80zm650 0h49v23h-49zm-520 5h49v18h-49zm390 0h49v18h-49zm-260-33h49v51h-49zm515 0h49v51h-49zm-385-31h49v82h-49z"/><path fill="#BFC6FF" d="M80 231h49v13H80zm650 0h49v13h-49zm-520 9h49v9h-49zm390 0h49v9h-49zm-260-33h49v9h-49zm515 0h49v9h-49zm-385-37h49v15h-49z"/><path fill="#EC569E" d="M80 217h49v14H80zm650 0h49v14h-49zm-520-20h49v43h-49zm390 0h49v43h-49zm-260-33h49v43h-49zm515 0h49v43h-49zm-385-4h49v10h-49z"/><path fill="#5ED28C" d="M80 191h49v26H80zm650 0h49v26h-49zm-520-14h49v20h-49zm390 0h49v20h-49zm-260-17h49v4h-49zm515 0h49v4h-49zm-385-7h49v7h-49z"/><path fill="#A7E5FF" d="M80 140h49v51H80zm650 0h49v51h-49zm-520 24h49v13h-49zm390 0h49v13h-49zm-260-17h49v13h-49zm515 0h49v13h-49zm-385-15h49v21h-49z"/><path fill="#5E6985" d="M730 134h49v6h-49zm-650 0h49v6H80zm130 0h49v30h-49zm390 0h49v30h-49zm-260 10h49v3h-49zm515 0h49v3h-49z"/><path fill="#FFA030" d="M80 106h49v28H80zm650 0h49v28h-49zm-520 6h49v22h-49zm390 0h49v22h-49zm-260 10h49v22h-49zm515 0h49v22h-49zM470 96h49v36h-49z"/><path fill="#FDE798" d="M80 45h49v61H80zm650 0h49v61h-49zm-520 57h49v10h-49zm390 0h49v10h-49zm-260 10h49v10h-49zm515 0h49v10h-49zM470 80h49v16h-49z"/><rect x="29" y="321" width="20" height="20" rx="3" fill="#FDE798"/><path d="M62.885 328.395h-2.742V336h-1.12v-7.605h-2.736v-.926h6.598v.926zm3.14 7.722c-.859 0-1.558-.281-2.097-.844-.54-.566-.809-1.322-.809-2.267v-.199c0-.629.12-1.19.358-1.682a2.812 2.812 0 011.007-1.16 2.537 2.537 0 011.407-.422c.824 0 1.465.271 1.921.814.457.543.686 1.321.686 2.332v.452h-4.295c.016.625.197 1.13.545 1.517.352.383.797.574 1.336.574.383 0 .707-.078.973-.234.265-.156.498-.363.697-.621l.662.516c-.531.816-1.328 1.224-2.39 1.224zm-.134-5.683c-.438 0-.805.16-1.102.48-.297.316-.48.762-.55 1.336h3.175v-.082c-.031-.551-.18-.977-.445-1.277-.266-.305-.625-.457-1.078-.457zM73.67 336c-.062-.125-.112-.348-.152-.668-.503.523-1.105.785-1.804.785-.625 0-1.139-.176-1.541-.527a1.73 1.73 0 01-.598-1.348c0-.66.25-1.172.75-1.535.504-.367 1.211-.551 2.121-.551h1.055v-.498c0-.379-.113-.679-.34-.902-.227-.227-.56-.34-1.002-.34-.387 0-.71.098-.972.293-.262.195-.393.432-.393.709h-1.09c0-.316.111-.621.334-.914.227-.297.531-.531.914-.703.387-.172.81-.258 1.272-.258.73 0 1.302.184 1.716.551.415.363.63.865.645 1.506v2.918c0 .582.074 1.044.223 1.388V336h-1.137zm-1.798-.826c.34 0 .662-.088.967-.264.304-.176.525-.404.662-.685v-1.301h-.85c-1.328 0-1.992.388-1.992 1.166 0 .34.113.605.34.797.227.191.518.287.873.287zm5.432-5.514l.029.703c.465-.547 1.092-.82 1.88-.82.888 0 1.491.34 1.811 1.019a2.43 2.43 0 01.82-.738c.34-.187.74-.281 1.202-.281 1.39 0 2.097.736 2.121 2.209V336h-1.084v-4.184c0-.453-.103-.791-.31-1.013-.208-.227-.555-.34-1.043-.34-.403 0-.737.121-1.002.363-.266.238-.42.561-.463.967V336h-1.09v-4.154c0-.922-.451-1.383-1.354-1.383-.71 0-1.197.303-1.459.908V336H76.28v-6.34h1.026zM93.236 336h-1.09v-7.225l-2.185.803v-.984l3.105-1.166h.17V336z" fill="#3D3D4F"/><rect x="150" y="321" width="20" height="20" rx="3" fill="#FFA030"/><path d="M183.885 328.395h-2.742V336h-1.12v-7.605h-2.736v-.926h6.598v.926zm3.14 7.722c-.859 0-1.558-.281-2.097-.844-.539-.566-.809-1.322-.809-2.267v-.199c0-.629.119-1.19.358-1.682a2.814 2.814 0 011.007-1.16 2.54 2.54 0 011.407-.422c.824 0 1.464.271 1.921.814.458.543.686 1.321.686 2.332v.452h-4.295c.016.625.197 1.13.545 1.517.352.383.797.574 1.336.574.383 0 .707-.078.973-.234.265-.156.498-.363.697-.621l.662.516c-.531.816-1.328 1.224-2.391 1.224zm-.134-5.683c-.438 0-.805.16-1.102.48-.297.316-.48.762-.551 1.336h3.176v-.082c-.031-.551-.18-.977-.445-1.277-.266-.305-.625-.457-1.078-.457zm7.781 5.566c-.063-.125-.113-.348-.152-.668-.504.523-1.106.785-1.805.785-.625 0-1.139-.176-1.541-.527a1.728 1.728 0 01-.598-1.348c0-.66.25-1.172.75-1.535.504-.367 1.211-.551 2.121-.551h1.055v-.498c0-.379-.113-.679-.34-.902-.226-.227-.56-.34-1.002-.34-.387 0-.711.098-.972.293-.262.195-.393.432-.393.709h-1.09c0-.316.111-.621.334-.914.227-.297.531-.531.914-.703a3.097 3.097 0 011.272-.258c.73 0 1.302.184 1.716.551.414.363.629.865.645 1.506v2.918c0 .582.074 1.044.223 1.388V336h-1.137zm-1.799-.826c.34 0 .662-.088.967-.264.305-.176.525-.404.662-.685v-1.301h-.85c-1.328 0-1.992.388-1.992 1.166 0 .34.113.605.34.797.227.191.518.287.873.287zm5.432-5.514l.029.703c.465-.547 1.092-.82 1.881-.82.887 0 1.49.34 1.81 1.019.211-.304.485-.55.821-.738.34-.187.74-.281 1.201-.281 1.391 0 2.098.736 2.121 2.209V336h-1.084v-4.184c0-.453-.104-.791-.311-1.013-.207-.227-.554-.34-1.043-.34-.402 0-.736.121-1.001.363-.266.238-.42.561-.463.967V336h-1.09v-4.154c0-.922-.451-1.383-1.354-1.383-.711 0-1.197.303-1.459.908V336h-1.084v-6.34h1.026zm17.959 6.34h-5.59v-.779l2.953-3.282c.437-.496.738-.898.902-1.207.168-.312.252-.634.252-.966 0-.446-.135-.811-.404-1.096-.27-.285-.629-.428-1.078-.428-.539 0-.959.154-1.26.463-.297.305-.445.731-.445 1.277h-1.084c0-.785.252-1.42.756-1.904.507-.484 1.185-.726 2.033-.726.793 0 1.42.209 1.881.627.461.414.691.966.691 1.658 0 .84-.535 1.84-1.605 3l-2.286 2.478h4.284V336z" fill="#3D3D4F"/><rect x="271" y="321" width="20" height="20" rx="3" fill="#5E6985"/><path d="M304.885 328.395h-2.742V336h-1.12v-7.605h-2.736v-.926h6.598v.926zm3.14 7.722c-.859 0-1.558-.281-2.097-.844-.539-.566-.809-1.322-.809-2.267v-.199c0-.629.119-1.19.358-1.682a2.814 2.814 0 011.007-1.16 2.54 2.54 0 011.407-.422c.824 0 1.464.271 1.921.814.458.543.686 1.321.686 2.332v.452h-4.295c.016.625.197 1.13.545 1.517.352.383.797.574 1.336.574.383 0 .707-.078.973-.234.265-.156.498-.363.697-.621l.662.516c-.531.816-1.328 1.224-2.391 1.224zm-.134-5.683c-.438 0-.805.16-1.102.48-.297.316-.48.762-.551 1.336h3.176v-.082c-.031-.551-.18-.977-.445-1.277-.266-.305-.625-.457-1.078-.457zm7.781 5.566c-.063-.125-.113-.348-.152-.668-.504.523-1.106.785-1.805.785-.625 0-1.139-.176-1.541-.527a1.728 1.728 0 01-.598-1.348c0-.66.25-1.172.75-1.535.504-.367 1.211-.551 2.121-.551h1.055v-.498c0-.379-.113-.679-.34-.902-.226-.227-.56-.34-1.002-.34-.387 0-.711.098-.972.293-.262.195-.393.432-.393.709h-1.09c0-.316.111-.621.334-.914.227-.297.531-.531.914-.703a3.097 3.097 0 011.272-.258c.73 0 1.302.184 1.716.551.414.363.629.865.645 1.506v2.918c0 .582.074 1.044.223 1.388V336h-1.137zm-1.799-.826c.34 0 .662-.088.967-.264.305-.176.525-.404.662-.685v-1.301h-.85c-1.328 0-1.992.388-1.992 1.166 0 .34.113.605.34.797.227.191.518.287.873.287zm5.432-5.514l.029.703c.465-.547 1.092-.82 1.881-.82.887 0 1.49.34 1.81 1.019.211-.304.485-.55.821-.738.34-.187.74-.281 1.201-.281 1.391 0 2.098.736 2.121 2.209V336h-1.084v-4.184c0-.453-.104-.791-.311-1.013-.207-.227-.554-.34-1.043-.34-.402 0-.736.121-1.001.363-.266.238-.42.561-.463.967V336h-1.09v-4.154c0-.922-.451-1.383-1.354-1.383-.711 0-1.197.303-1.459.908V336h-1.084v-6.34h1.026zm13.945 1.547h.814c.512-.008.915-.143 1.207-.404.293-.262.44-.615.44-1.061 0-1-.498-1.5-1.494-1.5-.469 0-.844.135-1.125.404-.278.266-.416.62-.416 1.061h-1.084c0-.676.246-1.236.738-1.682.496-.449 1.125-.673 1.887-.673.804 0 1.435.212 1.892.638.457.426.686 1.018.686 1.776 0 .371-.121.73-.363 1.078a2.167 2.167 0 01-.979.779c.469.148.83.395 1.084.738.258.344.387.764.387 1.26 0 .766-.25 1.373-.75 1.822-.5.45-1.151.674-1.951.674-.801 0-1.453-.217-1.957-.65-.5-.434-.75-1.006-.75-1.717h1.089c0 .449.147.809.44 1.078.293.27.685.404 1.178.404.523 0 .923-.136 1.201-.41.277-.273.416-.666.416-1.177 0-.497-.152-.877-.457-1.143-.305-.266-.744-.402-1.319-.41h-.814v-.885z" fill="#3D3D4F"/><rect x="392" y="321" width="20" height="20" rx="3" fill="#A7E5FF"/><path d="M425.885 328.395h-2.742V336h-1.12v-7.605h-2.736v-.926h6.598v.926zm3.14 7.722c-.859 0-1.558-.281-2.097-.844-.539-.566-.809-1.322-.809-2.267v-.199c0-.629.119-1.19.358-1.682a2.814 2.814 0 011.007-1.16 2.54 2.54 0 011.407-.422c.824 0 1.464.271 1.921.814.458.543.686 1.321.686 2.332v.452h-4.295c.016.625.197 1.13.545 1.517.352.383.797.574 1.336.574.383 0 .707-.078.973-.234.265-.156.498-.363.697-.621l.662.516c-.531.816-1.328 1.224-2.391 1.224zm-.134-5.683c-.438 0-.805.16-1.102.48-.297.316-.48.762-.551 1.336h3.176v-.082c-.031-.551-.18-.977-.445-1.277-.266-.305-.625-.457-1.078-.457zm7.781 5.566c-.063-.125-.113-.348-.152-.668-.504.523-1.106.785-1.805.785-.625 0-1.139-.176-1.541-.527a1.728 1.728 0 01-.598-1.348c0-.66.25-1.172.75-1.535.504-.367 1.211-.551 2.121-.551h1.055v-.498c0-.379-.113-.679-.34-.902-.226-.227-.56-.34-1.002-.34-.387 0-.711.098-.972.293-.262.195-.393.432-.393.709h-1.09c0-.316.111-.621.334-.914.227-.297.531-.531.914-.703a3.097 3.097 0 011.272-.258c.73 0 1.302.184 1.716.551.414.363.629.865.645 1.506v2.918c0 .582.074 1.044.223 1.388V336h-1.137zm-1.799-.826c.34 0 .662-.088.967-.264.305-.176.525-.404.662-.685v-1.301h-.85c-1.328 0-1.992.388-1.992 1.166 0 .34.113.605.34.797.227.191.518.287.873.287zm5.432-5.514l.029.703c.465-.547 1.092-.82 1.881-.82.887 0 1.49.34 1.81 1.019.211-.304.485-.55.821-.738.34-.187.74-.281 1.201-.281 1.391 0 2.098.736 2.121 2.209V336h-1.084v-4.184c0-.453-.104-.791-.311-1.013-.207-.227-.554-.34-1.043-.34-.402 0-.736.121-1.001.363-.266.238-.42.561-.463.967V336h-1.09v-4.154c0-.922-.451-1.383-1.354-1.383-.711 0-1.197.303-1.459.908V336h-1.084v-6.34h1.026zm13.945 1.547h.814c.512-.008.915-.143 1.207-.404.293-.262.44-.615.44-1.061 0-1-.498-1.5-1.494-1.5-.469 0-.844.135-1.125.404-.278.266-.416.62-.416 1.061h-1.084c0-.676.246-1.236.738-1.682.496-.449 1.125-.673 1.887-.673.804 0 1.435.212 1.892.638.457.426.686 1.018.686 1.776 0 .371-.121.73-.363 1.078a2.167 2.167 0 01-.979.779c.469.148.83.395 1.084.738.258.344.387.764.387 1.26 0 .766-.25 1.373-.75 1.822-.5.45-1.151.674-1.951.674-.801 0-1.453-.217-1.957-.65-.5-.434-.75-1.006-.75-1.717h1.089c0 .449.147.809.44 1.078.293.27.685.404 1.178.404.523 0 .923-.136 1.201-.41.277-.273.416-.666.416-1.177 0-.497-.152-.877-.457-1.143-.305-.266-.744-.402-1.319-.41h-.814v-.885z" fill="#3D3D4F"/><rect x="513" y="321" width="20" height="20" rx="3" fill="#5ED28C"/><path d="M546.885 328.395h-2.742V336h-1.12v-7.605h-2.736v-.926h6.598v.926zm3.14 7.722c-.859 0-1.558-.281-2.097-.844-.539-.566-.809-1.322-.809-2.267v-.199c0-.629.119-1.19.358-1.682a2.814 2.814 0 011.007-1.16 2.54 2.54 0 011.407-.422c.824 0 1.464.271 1.921.814.458.543.686 1.321.686 2.332v.452h-4.295c.016.625.197 1.13.545 1.517.352.383.797.574 1.336.574.383 0 .707-.078.973-.234.265-.156.498-.363.697-.621l.662.516c-.531.816-1.328 1.224-2.391 1.224zm-.134-5.683c-.438 0-.805.16-1.102.48-.297.316-.48.762-.551 1.336h3.176v-.082c-.031-.551-.18-.977-.445-1.277-.266-.305-.625-.457-1.078-.457zm7.781 5.566c-.063-.125-.113-.348-.152-.668-.504.523-1.106.785-1.805.785-.625 0-1.139-.176-1.541-.527a1.728 1.728 0 01-.598-1.348c0-.66.25-1.172.75-1.535.504-.367 1.211-.551 2.121-.551h1.055v-.498c0-.379-.113-.679-.34-.902-.226-.227-.56-.34-1.002-.34-.387 0-.711.098-.972.293-.262.195-.393.432-.393.709h-1.09c0-.316.111-.621.334-.914.227-.297.531-.531.914-.703a3.097 3.097 0 011.272-.258c.73 0 1.302.184 1.716.551.414.363.629.865.645 1.506v2.918c0 .582.074 1.044.223 1.388V336h-1.137zm-1.799-.826c.34 0 .662-.088.967-.264.305-.176.525-.404.662-.685v-1.301h-.85c-1.328 0-1.992.388-1.992 1.166 0 .34.113.605.34.797.227.191.518.287.873.287zm5.432-5.514l.029.703c.465-.547 1.092-.82 1.881-.82.887 0 1.49.34 1.81 1.019.211-.304.485-.55.821-.738.34-.187.74-.281 1.201-.281 1.391 0 2.098.736 2.121 2.209V336h-1.084v-4.184c0-.453-.104-.791-.311-1.013-.207-.227-.554-.34-1.043-.34-.402 0-.736.121-1.001.363-.266.238-.42.561-.463.967V336h-1.09v-4.154c0-.922-.451-1.383-1.354-1.383-.711 0-1.197.303-1.459.908V336h-1.084v-6.34h1.026zm16.945 3.475h1.184v.885h-1.184V336h-1.09v-1.98h-3.885v-.639l3.821-5.912h1.154v5.666zm-3.744 0h2.654v-4.184l-.129.235-2.525 3.949z" fill="#3D3D4F"/><rect x="634" y="321" width="20" height="20" rx="3" fill="#EC559E"/><path d="M667.885 328.395h-2.742V336h-1.12v-7.605h-2.736v-.926h6.598v.926zm3.14 7.722c-.859 0-1.558-.281-2.097-.844-.539-.566-.809-1.322-.809-2.267v-.199c0-.629.119-1.19.358-1.682a2.814 2.814 0 011.007-1.16 2.54 2.54 0 011.407-.422c.824 0 1.464.271 1.921.814.458.543.686 1.321.686 2.332v.452h-4.295c.016.625.197 1.13.545 1.517.352.383.797.574 1.336.574.383 0 .707-.078.973-.234.265-.156.498-.363.697-.621l.662.516c-.531.816-1.328 1.224-2.391 1.224zm-.134-5.683c-.438 0-.805.16-1.102.48-.297.316-.48.762-.551 1.336h3.176v-.082c-.031-.551-.18-.977-.445-1.277-.266-.305-.625-.457-1.078-.457zm7.781 5.566c-.063-.125-.113-.348-.152-.668-.504.523-1.106.785-1.805.785-.625 0-1.139-.176-1.541-.527a1.728 1.728 0 01-.598-1.348c0-.66.25-1.172.75-1.535.504-.367 1.211-.551 2.121-.551h1.055v-.498c0-.379-.113-.679-.34-.902-.226-.227-.56-.34-1.002-.34-.387 0-.711.098-.972.293-.262.195-.393.432-.393.709h-1.09c0-.316.111-.621.334-.914.227-.297.531-.531.914-.703a3.097 3.097 0 011.272-.258c.73 0 1.302.184 1.716.551.414.363.629.865.645 1.506v2.918c0 .582.074 1.044.223 1.388V336h-1.137zm-1.799-.826c.34 0 .662-.088.967-.264.305-.176.525-.404.662-.685v-1.301h-.85c-1.328 0-1.992.388-1.992 1.166 0 .34.113.605.34.797.227.191.518.287.873.287zm5.432-5.514l.029.703c.465-.547 1.092-.82 1.881-.82.887 0 1.49.34 1.81 1.019.211-.304.485-.55.821-.738.34-.187.74-.281 1.201-.281 1.391 0 2.098.736 2.121 2.209V336h-1.084v-4.184c0-.453-.104-.791-.311-1.013-.207-.227-.554-.34-1.043-.34-.402 0-.736.121-1.001.363-.266.238-.42.561-.463.967V336h-1.09v-4.154c0-.922-.451-1.383-1.354-1.383-.711 0-1.197.303-1.459.908V336h-1.084v-6.34h1.026zm12.867 2.063l.433-4.254h4.372v1.002h-3.452l-.257 2.326a2.752 2.752 0 011.423-.369c.778 0 1.395.258 1.852.773.457.512.686 1.205.686 2.08 0 .879-.239 1.573-.715 2.08-.473.504-1.135.756-1.987.756-.754 0-1.369-.209-1.845-.627-.477-.418-.748-.996-.815-1.734h1.026c.066.488.24.857.521 1.107.281.246.652.369 1.113.369.504 0 .899-.171 1.184-.515.289-.344.434-.819.434-1.424 0-.57-.157-1.027-.469-1.371-.309-.348-.721-.522-1.237-.522-.472 0-.843.104-1.113.311l-.287.234-.867-.222z" fill="#3D3D4F"/><rect x="755" y="321" width="20" height="20" rx="3" fill="#BFC6FF"/><path d="M788.885 328.395h-2.742V336h-1.12v-7.605h-2.736v-.926h6.598v.926zm3.14 7.722c-.859 0-1.558-.281-2.097-.844-.539-.566-.809-1.322-.809-2.267v-.199c0-.629.119-1.19.358-1.682a2.814 2.814 0 011.007-1.16 2.54 2.54 0 011.407-.422c.824 0 1.464.271 1.921.814.458.543.686 1.321.686 2.332v.452h-4.295c.016.625.197 1.13.545 1.517.352.383.797.574 1.336.574.383 0 .707-.078.973-.234.265-.156.498-.363.697-.621l.662.516c-.531.816-1.328 1.224-2.391 1.224zm-.134-5.683c-.438 0-.805.16-1.102.48-.297.316-.48.762-.551 1.336h3.176v-.082c-.031-.551-.18-.977-.445-1.277-.266-.305-.625-.457-1.078-.457zm7.781 5.566c-.063-.125-.113-.348-.152-.668-.504.523-1.106.785-1.805.785-.625 0-1.139-.176-1.541-.527a1.728 1.728 0 01-.598-1.348c0-.66.25-1.172.75-1.535.504-.367 1.211-.551 2.121-.551h1.055v-.498c0-.379-.113-.679-.34-.902-.226-.227-.56-.34-1.002-.34-.387 0-.711.098-.972.293-.262.195-.393.432-.393.709h-1.09c0-.316.111-.621.334-.914.227-.297.531-.531.914-.703a3.097 3.097 0 011.272-.258c.73 0 1.302.184 1.716.551.414.363.629.865.645 1.506v2.918c0 .582.074 1.044.223 1.388V336h-1.137zm-1.799-.826c.34 0 .662-.088.967-.264.305-.176.525-.404.662-.685v-1.301h-.85c-1.328 0-1.992.388-1.992 1.166 0 .34.113.605.34.797.227.191.518.287.873.287zm5.432-5.514l.029.703c.465-.547 1.092-.82 1.881-.82.887 0 1.49.34 1.81 1.019.211-.304.485-.55.821-.738.34-.187.74-.281 1.201-.281 1.391 0 2.098.736 2.121 2.209V336h-1.084v-4.184c0-.453-.104-.791-.311-1.013-.207-.227-.554-.34-1.043-.34-.402 0-.736.121-1.001.363-.266.238-.42.561-.463.967V336h-1.09v-4.154c0-.922-.451-1.383-1.354-1.383-.711 0-1.197.303-1.459.908V336h-1.084v-6.34h1.026zm16.623-2.197v.92h-.199c-.844.015-1.516.265-2.016.75-.5.484-.789 1.166-.867 2.045.449-.516 1.062-.774 1.84-.774.742 0 1.334.262 1.775.785.445.524.668 1.2.668 2.028 0 .879-.24 1.582-.721 2.109-.476.528-1.117.791-1.922.791-.816 0-1.478-.312-1.986-.937-.508-.629-.762-1.438-.762-2.426v-.416c0-1.57.334-2.77 1.002-3.598.672-.832 1.67-1.258 2.994-1.277h.194zm-1.424 3.844c-.371 0-.713.111-1.025.334-.313.222-.53.502-.651.838v.398c0 .703.158 1.269.475 1.699.316.43.711.645 1.183.645.489 0 .871-.18 1.149-.539.281-.36.422-.83.422-1.412 0-.586-.143-1.059-.428-1.418a1.349 1.349 0 00-1.125-.545z" fill="#3D3D4F"/><rect x="876" y="321" width="20" height="20" rx="3" fill="#0092E4"/><path d="M909.885 328.395h-2.742V336h-1.12v-7.605h-2.736v-.926h6.598v.926zm3.14 7.722c-.859 0-1.558-.281-2.097-.844-.539-.566-.809-1.322-.809-2.267v-.199c0-.629.119-1.19.358-1.682a2.814 2.814 0 011.007-1.16 2.54 2.54 0 011.407-.422c.824 0 1.464.271 1.921.814.458.543.686 1.321.686 2.332v.452h-4.295c.016.625.197 1.13.545 1.517.352.383.797.574 1.336.574.383 0 .707-.078.973-.234.265-.156.498-.363.697-.621l.662.516c-.531.816-1.328 1.224-2.391 1.224zm-.134-5.683c-.438 0-.805.16-1.102.48-.297.316-.48.762-.551 1.336h3.176v-.082c-.031-.551-.18-.977-.445-1.277-.266-.305-.625-.457-1.078-.457zm7.781 5.566c-.063-.125-.113-.348-.152-.668-.504.523-1.106.785-1.805.785-.625 0-1.139-.176-1.541-.527a1.728 1.728 0 01-.598-1.348c0-.66.25-1.172.75-1.535.504-.367 1.211-.551 2.121-.551h1.055v-.498c0-.379-.113-.679-.34-.902-.226-.227-.56-.34-1.002-.34-.387 0-.711.098-.972.293-.262.195-.393.432-.393.709h-1.09c0-.316.111-.621.334-.914.227-.297.531-.531.914-.703a3.097 3.097 0 011.272-.258c.73 0 1.302.184 1.716.551.414.363.629.865.645 1.506v2.918c0 .582.074 1.044.223 1.388V336h-1.137zm-1.799-.826c.34 0 .662-.088.967-.264.305-.176.525-.404.662-.685v-1.301h-.85c-1.328 0-1.992.388-1.992 1.166 0 .34.113.605.34.797.227.191.518.287.873.287zm5.432-5.514l.029.703c.465-.547 1.092-.82 1.881-.82.887 0 1.49.34 1.81 1.019.211-.304.485-.55.821-.738.34-.187.74-.281 1.201-.281 1.391 0 2.098.736 2.121 2.209V336h-1.084v-4.184c0-.453-.104-.791-.311-1.013-.207-.227-.554-.34-1.043-.34-.402 0-.736.121-1.001.363-.266.238-.42.561-.463.967V336h-1.09v-4.154c0-.922-.451-1.383-1.354-1.383-.711 0-1.197.303-1.459.908V336h-1.084v-6.34h1.026zm17.877-1.582L938.648 336h-1.136l3.521-7.641h-4.617v-.89h5.766v.609z" fill="#3D3D4F"/></svg>