<svg width="186" height="186" fill="none" xmlns="http://www.w3.org/2000/svg"><path fill-rule="evenodd" clip-rule="evenodd" d="M92.816 34C60.316 34.1 34 60.477 34 93c0 32.585 26.415 59 59 59 12.534 0 24.155-3.908 33.711-10.573l19.361 27.684c-42.014 29.52-99.882 19.271-129.285-22.808C-12.615 104.224-2.382 46.265 39.56 16.817 55.558 5.63 73.358 0 92.816 0v34z" fill="#A7E5FF"/><path fill-rule="evenodd" clip-rule="evenodd" d="M110.066 36.507c14.43 4.353 26.527 14.083 33.963 26.86l29.212-16.884c-12.179-21.148-29.907-35.294-53.256-42.44l-9.919 32.464z" fill="#BFC6FF"/><path fill-rule="evenodd" clip-rule="evenodd" d="M126.711 141.426C141.998 130.764 152 113.049 152 92.999c0-10.802-2.903-20.927-7.971-29.635l29.212-16.883c24.43 42.367 12.828 94.623-27.169 122.628l-19.361-27.683z" fill="#0092E4"/><path fill-rule="evenodd" clip-rule="evenodd" d="M92.816 34H93c5.934 0 11.664.876 17.066 2.506l9.919-32.464C110.616 1.227 102.545 0 92.816 0v34z" fill="#D3D5E3"/><path d="M16.375 107h-5.736v-.979l2.841-3.099c.41-.457.702-.838.873-1.143.176-.308.264-.617.264-.925 0-.407-.115-.735-.346-.985-.226-.25-.533-.375-.92-.375-.46 0-.818.14-1.072.422-.254.281-.38.666-.38 1.154h-1.424c0-.519.117-.986.351-1.4a2.459 2.459 0 011.014-.973c.441-.23.95-.345 1.523-.345.828 0 1.48.209 1.957.626.48.415.721.989.721 1.723 0 .426-.121.873-.363 1.342-.239.465-.631.994-1.178 1.588l-2.086 2.232h3.961V107zm5.514-8.572v1.178h-.176c-.797.011-1.434.23-1.91.656-.477.426-.76 1.029-.85 1.81.457-.48 1.041-.72 1.752-.72.754 0 1.348.265 1.781.796.438.532.657 1.217.657 2.057 0 .867-.256 1.57-.768 2.109-.508.536-1.176.803-2.004.803-.851 0-1.543-.314-2.074-.943-.527-.629-.791-1.453-.791-2.473v-.486c0-1.496.363-2.668 1.09-3.516.73-.847 1.779-1.271 3.146-1.271h.147zm-1.53 4.072a1.543 1.543 0 00-1.43.967v.433c0 .633.134 1.137.4 1.512.265.371.608.557 1.03.557.422 0 .756-.158 1.002-.475.246-.316.37-.732.37-1.248s-.126-.935-.376-1.26a1.196 1.196 0 00-.996-.486zM163.494 114h-1.418v-6.85l-2.092.715v-1.201l3.328-1.225h.182V114zm7.781-3.041h1.061v1.143h-1.061V114h-1.423v-1.898h-3.686l-.041-.868 3.68-5.765h1.47v5.49zm-3.656 0h2.233v-3.563l-.106.188-2.127 3.375zM137.02 34.77l.462-4.301h4.582v1.23h-3.398l-.234 2.04a2.63 2.63 0 011.336-.34c.812 0 1.443.26 1.892.779.453.52.68 1.219.68 2.097 0 .868-.25 1.559-.75 2.075-.5.511-1.186.767-2.057.767-.781 0-1.429-.22-1.945-.662-.512-.445-.789-1.031-.832-1.758h1.377c.055.414.203.733.445.955.242.22.559.328.949.328.438 0 .778-.156 1.02-.468.246-.313.369-.739.369-1.278 0-.52-.135-.93-.404-1.23-.27-.305-.641-.457-1.114-.457-.257 0-.476.035-.656.105-.18.067-.375.2-.586.399l-1.136-.282zm-31.565-14.811h1.061v1.143h-1.061V23h-1.424v-1.898h-3.685l-.041-.868 3.679-5.765h1.471v5.49zm-3.656 0h2.232v-3.563l-.105.188-2.127 3.375z" fill="#fff"/><path d="M107.27 100.873h-8.99L96.571 106H91.12l9.262-24.883h4.751L114.447 106h-5.451l-1.726-5.127zm-7.605-4.153h6.22l-3.127-9.314-3.093 9.314zm21.994 9.28h-4.956V79.75h4.956V106zm9.297 0H126V79.75h4.956V106z" fill="#DFDFE4"/><path d="M66.304 96.635h2.82v3.982h-2.82V106h-4.94v-5.383H51.163l-.222-3.11 10.373-16.39h4.99v15.518zm-10.442 0h5.503V87.85l-.325.564-5.178 8.22zm32.146-8.904c0 1.208-.302 2.279-.906 3.213-.604.934-1.436 1.68-2.495 2.239 1.208.58 2.165 1.384 2.871 2.41.706 1.013 1.06 2.21 1.06 3.588 0 2.21-.752 3.959-2.256 5.247-1.504 1.276-3.55 1.914-6.135 1.914-2.587 0-4.638-.644-6.153-1.931-1.515-1.288-2.273-3.031-2.273-5.23 0-1.378.353-2.58 1.06-3.606.706-1.025 1.657-1.823 2.854-2.392-1.06-.559-1.892-1.305-2.495-2.24-.593-.933-.889-2.004-.889-3.212 0-2.12.706-3.805 2.12-5.059 1.412-1.264 3.332-1.897 5.758-1.897 2.416 0 4.33.627 5.743 1.88 1.424 1.242 2.136 2.934 2.136 5.076zm-4.426 11.091c0-1.082-.314-1.948-.94-2.597-.627-.65-1.47-.974-2.53-.974-1.048 0-1.885.324-2.512.974-.626.638-.94 1.504-.94 2.597 0 1.06.308 1.914.923 2.564.615.649 1.47.974 2.564.974 1.07 0 1.908-.313 2.512-.94.615-.627.922-1.493.922-2.598zm-.513-10.852c0-.968-.257-1.743-.77-2.324-.512-.593-1.235-.889-2.17-.889-.922 0-1.64.285-2.153.855-.513.57-.769 1.356-.769 2.358 0 .991.256 1.789.77 2.393.512.604 1.235.906 2.17.906.934 0 1.651-.302 2.153-.906.513-.604.769-1.402.769-2.393z" fill="#0092E4"/></svg>